<svg width="93" height="124" viewBox="0 0 93 124" fill="none" xmlns="http://www.w3.org/2000/svg">
<g filter="url(#filter0_d_404_4770)">
<rect width="88.2051" height="120" rx="16.4103" fill="#232323" shape-rendering="crispEdges"/>
<rect x="1.02564" y="1.02564" width="86.1538" height="117.949" rx="15.3846" stroke="#B9BABA" stroke-width="2.05128" shape-rendering="crispEdges"/>
<rect x="16.923" y="17.1144" width="54.359" height="54.359" rx="27.1795" fill="#808080"/>
<rect x="16.923" y="17.1144" width="54.359" height="54.359" rx="27.1795" stroke="#24C2AF" stroke-width="1.02564"/>
<g clip-path="url(#clip0_404_4770)">
<path d="M38.8042 60.2906C41.7294 60.2906 44.1034 57.9015 44.1034 54.9578V49.625H38.8042C35.879 49.625 33.5049 52.0141 33.5049 54.9578C33.5049 57.9015 35.879 60.2906 38.8042 60.2906Z" fill="#0ACF83"/>
<path d="M33.5049 44.3015C33.5049 41.3578 35.879 38.9688 38.8042 38.9688H44.1034V49.6343H38.8042C35.879 49.6343 33.5049 47.2452 33.5049 44.3015Z" fill="#A259FF"/>
<path d="M33.5049 33.6297C33.5049 30.686 35.879 28.2969 38.8042 28.2969H44.1034V38.9624H38.8042C35.879 38.9624 33.5049 36.5734 33.5049 33.6297Z" fill="#F24E1E"/>
<path d="M44.1025 28.2969H49.4018C52.327 28.2969 54.7011 30.686 54.7011 33.6297C54.7011 36.5734 52.327 38.9624 49.4018 38.9624H44.1025V28.2969Z" fill="#FF7262"/>
<path d="M54.7011 44.3015C54.7011 47.2452 52.327 49.6343 49.4018 49.6343C46.4766 49.6343 44.1025 47.2452 44.1025 44.3015C44.1025 41.3578 46.4766 38.9688 49.4018 38.9688C52.327 38.9688 54.7011 41.3578 54.7011 44.3015Z" fill="#1ABCFE"/>
</g>
<rect x="15.8457" y="80.1953" width="56.5128" height="23.2051" rx="4" fill="#232323"/>
<path d="M27.1865 96.2969V87.3458H32.5536V88.3074H28.2704V91.3318H32.1515V92.2934H28.2704V96.2969H27.1865ZM34.2702 96.2969V89.5836H35.3016V96.2969H34.2702ZM34.7946 88.4647C34.5936 88.4647 34.4202 88.3962 34.2745 88.2593C34.1317 88.1223 34.0604 87.9577 34.0604 87.7654C34.0604 87.5731 34.1317 87.4085 34.2745 87.2715C34.4202 87.1346 34.5936 87.0661 34.7946 87.0661C34.9957 87.0661 35.1676 87.1346 35.3104 87.2715C35.4561 87.4085 35.5289 87.5731 35.5289 87.7654C35.5289 87.9577 35.4561 88.1223 35.3104 88.2593C35.1676 88.3962 34.9957 88.4647 34.7946 88.4647ZM39.9006 98.9542C39.4024 98.9542 38.974 98.8901 38.6157 98.7619C38.2573 98.6366 37.9586 98.4705 37.7197 98.2637C37.4837 98.0597 37.2957 97.8412 37.1559 97.6081L37.9775 97.0311C38.0708 97.1535 38.1888 97.2934 38.3316 97.4507C38.4743 97.611 38.6696 97.7494 38.9172 97.8659C39.1678 97.9854 39.4956 98.0451 39.9006 98.0451C40.4426 98.0451 40.8898 97.914 41.2424 97.6518C41.595 97.3895 41.7712 96.9787 41.7712 96.4193V95.0556H41.6838C41.6081 95.178 41.5003 95.3295 41.3604 95.5102C41.2235 95.6879 41.0253 95.8467 40.766 95.9866C40.5096 96.1235 40.1629 96.192 39.7258 96.192C39.1838 96.192 38.6972 96.0638 38.266 95.8074C37.8377 95.551 37.4982 95.178 37.2476 94.6885C37 94.199 36.8761 93.6046 36.8761 92.9053C36.8761 92.2176 36.9971 91.6188 37.2389 91.1089C37.4807 90.5961 37.8173 90.1998 38.2485 89.9201C38.6798 89.6375 39.178 89.4962 39.7433 89.4962C40.1803 89.4962 40.5271 89.569 40.7835 89.7147C41.0428 89.8575 41.2409 90.0207 41.3779 90.2042C41.5177 90.3849 41.6256 90.5335 41.7013 90.65H41.8062V89.5836H42.8027V96.4892C42.8027 97.0661 42.6716 97.5352 42.4094 97.8965C42.15 98.2607 41.8004 98.5274 41.3604 98.6964C40.9233 98.8683 40.4367 98.9542 39.9006 98.9542ZM39.8657 95.2654C40.2794 95.2654 40.6291 95.1707 40.9146 94.9813C41.2001 94.7919 41.4172 94.5195 41.5658 94.164C41.7144 93.8085 41.7887 93.3831 41.7887 92.8878C41.7887 92.4041 41.7159 91.9772 41.5702 91.6072C41.4245 91.2371 41.2089 90.9472 40.9233 90.7374C40.6378 90.5276 40.2852 90.4227 39.8657 90.4227C39.4286 90.4227 39.0644 90.5335 38.773 90.7549C38.4845 90.9764 38.2675 91.2736 38.1218 91.6465C37.979 92.0195 37.9076 92.4332 37.9076 92.8878C37.9076 93.354 37.9805 93.7663 38.1261 94.1247C38.2747 94.4801 38.4933 94.7599 38.7817 94.9638C39.0731 95.1649 39.4344 95.2654 39.8657 95.2654ZM44.6908 96.2969V89.5836H45.6873V90.6325H45.7747C45.9146 90.2741 46.1404 89.9959 46.4522 89.7977C46.764 89.5967 47.1384 89.4962 47.5754 89.4962C48.0183 89.4962 48.3869 89.5967 48.6812 89.7977C48.9784 89.9959 49.2101 90.2741 49.3761 90.6325H49.4461C49.618 90.2858 49.8759 90.0105 50.2197 89.8065C50.5635 89.5996 50.9758 89.4962 51.4566 89.4962C52.0568 89.4962 52.5478 89.6841 52.9295 90.06C53.3112 90.4329 53.502 91.0142 53.502 91.8039V96.2969H52.4705V91.8039C52.4705 91.3085 52.3351 90.9545 52.0641 90.7418C51.7931 90.5291 51.474 90.4227 51.1069 90.4227C50.6349 90.4227 50.2692 90.5655 50.0099 90.8511C49.7506 91.1337 49.6209 91.4921 49.6209 91.9262V96.2969H48.5719V91.699C48.5719 91.3173 48.4481 91.0099 48.2004 90.7768C47.9528 90.5408 47.6337 90.4227 47.2433 90.4227C46.9752 90.4227 46.7246 90.4941 46.4915 90.6369C46.2613 90.7797 46.0749 90.9778 45.9321 91.2313C45.7922 91.4819 45.7223 91.7718 45.7223 92.1011V96.2969H44.6908ZM57.3635 96.4542C56.9381 96.4542 56.552 96.3741 56.2052 96.2138C55.8585 96.0507 55.5832 95.8161 55.3792 95.5102C55.1752 95.2013 55.0733 94.8283 55.0733 94.3913C55.0733 94.0067 55.149 93.6949 55.3005 93.456C55.452 93.2141 55.6546 93.0247 55.908 92.8878C56.1615 92.7508 56.4413 92.6489 56.7472 92.5818C57.0561 92.5119 57.3664 92.4565 57.6782 92.4158C58.0861 92.3633 58.4168 92.324 58.6703 92.2977C58.9267 92.2686 59.1132 92.2205 59.2297 92.1535C59.3492 92.0865 59.4089 91.97 59.4089 91.8039V91.7689C59.4089 91.3377 59.2909 91.0026 59.0549 90.7637C58.8218 90.5247 58.4678 90.4053 57.9928 90.4053C57.5004 90.4053 57.1143 90.5131 56.8346 90.7287C56.5549 90.9443 56.3582 91.1745 56.2446 91.4193L55.2656 91.0696C55.4404 90.6617 55.6735 90.3441 55.9649 90.1168C56.2592 89.8866 56.5797 89.7264 56.9264 89.636C57.2761 89.5428 57.6199 89.4962 57.9579 89.4962C58.1735 89.4962 58.4212 89.5224 58.7009 89.5748C58.9835 89.6244 59.2559 89.7278 59.5182 89.8852C59.7833 90.0425 60.0033 90.28 60.1782 90.5976C60.353 90.9152 60.4404 91.3406 60.4404 91.8738V96.2969H59.4089V95.3878H59.3565C59.2865 95.5335 59.17 95.6894 59.0068 95.8554C58.8437 96.0215 58.6266 96.1628 58.3556 96.2794C58.0846 96.3959 57.7539 96.4542 57.3635 96.4542ZM57.5208 95.5276C57.9287 95.5276 58.2726 95.4475 58.5523 95.2873C58.8349 95.127 59.0476 94.9201 59.1904 94.6666C59.3361 94.4131 59.4089 94.1465 59.4089 93.8668V92.9227C59.3652 92.9752 59.2691 93.0233 59.1205 93.067C58.9748 93.1078 58.8058 93.1442 58.6135 93.1762C58.4241 93.2054 58.239 93.2316 58.0584 93.2549C57.8807 93.2753 57.7364 93.2928 57.6257 93.3074C57.3576 93.3423 57.1071 93.3991 56.874 93.4778C56.6438 93.5536 56.4573 93.6687 56.3145 93.8231C56.1747 93.9746 56.1047 94.1815 56.1047 94.4437C56.1047 94.8021 56.2373 95.0731 56.5025 95.2567C56.7705 95.4373 57.11 95.5276 57.5208 95.5276Z" fill="#FFA500"/>
</g>
<defs>
<filter id="filter0_d_404_4770" x="0" y="0" width="92.2051" height="124" filterUnits="userSpaceOnUse" color-interpolation-filters="sRGB">
<feFlood flood-opacity="0" result="BackgroundImageFix"/>
<feColorMatrix in="SourceAlpha" type="matrix" values="0 0 0 0 0 0 0 0 0 0 0 0 0 0 0 0 0 0 127 0" result="hardAlpha"/>
<feOffset dx="4" dy="4"/>
<feComposite in2="hardAlpha" operator="out"/>
<feColorMatrix type="matrix" values="0 0 0 0 0.462745 0 0 0 0 0.482353 0 0 0 0 0.486275 0 0 0 1 0"/>
<feBlend mode="normal" in2="BackgroundImageFix" result="effect1_dropShadow_404_4770"/>
<feBlend mode="normal" in="SourceGraphic" in2="effect1_dropShadow_404_4770" result="shape"/>
</filter>
<clipPath id="clip0_404_4770">
<rect width="21.2037" height="31.9967" fill="white" transform="translate(33.501 28.2969)"/>
</clipPath>
</defs>
</svg>
