<svg width="160" height="44" viewBox="0 0 160 44" fill="none" xmlns="http://www.w3.org/2000/svg">
<rect x="1" y="1" width="158" height="42" rx="13" fill="url(#paint0_linear_408_5708)"/>
<rect x="1" y="1" width="158" height="42" rx="13" stroke="#808080" stroke-width="2"/>
<path d="M35.4382 29V15.9091H40.1044C41.1229 15.9091 41.9666 16.0945 42.6357 16.4652C43.3047 16.8359 43.8054 17.343 44.1378 17.9865C44.4702 18.6257 44.6364 19.3459 44.6364 20.147C44.6364 20.9524 44.468 21.6768 44.1314 22.3203C43.799 22.9595 43.2962 23.4666 42.6229 23.8416C41.9538 24.2124 41.1122 24.3977 40.098 24.3977H36.8892V22.723H39.919C40.5625 22.723 41.0845 22.6122 41.4851 22.3906C41.8857 22.1648 42.1797 21.858 42.3672 21.4702C42.5547 21.0824 42.6484 20.6413 42.6484 20.147C42.6484 19.6527 42.5547 19.2138 42.3672 18.8303C42.1797 18.4467 41.8835 18.1463 41.4787 17.929C41.0781 17.7116 40.5497 17.603 39.8935 17.603H37.4134V29H35.4382ZM48.7097 15.9091V29H46.7985V15.9091H48.7097ZM54.1381 29.2173C53.516 29.2173 52.9535 29.1023 52.4506 28.8722C51.9478 28.6378 51.5494 28.299 51.2553 27.8558C50.9656 27.4126 50.8207 26.8693 50.8207 26.2259C50.8207 25.6719 50.9272 25.2159 51.1403 24.858C51.3533 24.5 51.641 24.2166 52.0032 24.0078C52.3654 23.799 52.7702 23.6413 53.2177 23.5348C53.6651 23.4283 54.1211 23.3473 54.5856 23.2919C55.1737 23.2237 55.6509 23.1683 56.0174 23.1257C56.3839 23.0788 56.6502 23.0043 56.8164 22.902C56.9826 22.7997 57.0657 22.6335 57.0657 22.4034V22.3587C57.0657 21.8004 56.908 21.3679 56.5927 21.0611C56.2816 20.7543 55.8171 20.6009 55.1992 20.6009C54.5558 20.6009 54.0487 20.7436 53.6779 21.0291C53.3114 21.3104 53.0579 21.6236 52.9173 21.9688L51.1211 21.5597C51.3342 20.9631 51.6452 20.4815 52.0543 20.1151C52.4677 19.7443 52.9428 19.4759 53.4798 19.3097C54.0167 19.1392 54.5813 19.054 55.1737 19.054C55.5657 19.054 55.9812 19.1009 56.4201 19.1946C56.8633 19.2841 57.2766 19.4503 57.6602 19.6932C58.0479 19.9361 58.3654 20.2834 58.6126 20.7351C58.8597 21.1825 58.9833 21.7642 58.9833 22.4801V29H57.1168V27.6577H57.0401C56.9165 27.9048 56.7312 28.1477 56.484 28.3864C56.2369 28.625 55.9194 28.8232 55.5316 28.9808C55.1438 29.1385 54.6793 29.2173 54.1381 29.2173ZM54.5536 27.6832C55.082 27.6832 55.5337 27.5788 55.9087 27.37C56.288 27.1612 56.5756 26.8885 56.7717 26.5518C56.9719 26.2109 57.0721 25.8466 57.0721 25.4588V24.1932C57.0039 24.2614 56.8718 24.3253 56.6758 24.3849C56.484 24.4403 56.2646 24.4893 56.0174 24.532C55.7702 24.5703 55.5295 24.6065 55.2951 24.6406C55.0607 24.6705 54.8647 24.696 54.707 24.7173C54.3363 24.7642 53.9975 24.843 53.6907 24.9538C53.3881 25.0646 53.1452 25.2244 52.962 25.4332C52.783 25.6378 52.6935 25.9105 52.6935 26.2514C52.6935 26.7244 52.8683 27.0824 53.2177 27.3253C53.5671 27.5639 54.0124 27.6832 54.5536 27.6832ZM62.3855 32.6818C62.1 32.6818 61.84 32.6584 61.6056 32.6115C61.3713 32.5689 61.1966 32.522 61.0815 32.4709L61.5417 30.9048C61.8912 30.9986 62.2022 31.0391 62.475 31.0263C62.7477 31.0135 62.9885 30.9112 63.1973 30.7195C63.4103 30.5277 63.5978 30.2145 63.7598 29.7798L63.9963 29.1278L60.4039 19.1818H62.4494L64.9359 26.8011H65.0382L67.5247 19.1818H69.5765L65.5304 30.3104C65.3429 30.8217 65.1042 31.2543 64.8145 31.608C64.5247 31.9659 64.1795 32.2344 63.7789 32.4134C63.3784 32.5923 62.9139 32.6818 62.3855 32.6818ZM85.1491 20.0447C85.0256 19.657 84.8594 19.3097 84.6506 19.0028C84.446 18.6918 84.201 18.4276 83.9155 18.2102C83.63 17.9886 83.304 17.8203 82.9375 17.7053C82.5753 17.5902 82.1768 17.5327 81.7422 17.5327C81.005 17.5327 80.3402 17.7223 79.7479 18.1016C79.1555 18.4808 78.6868 19.0369 78.3416 19.7699C78.0007 20.4986 77.8303 21.3913 77.8303 22.4482C77.8303 23.5092 78.0028 24.4062 78.348 25.1392C78.6932 25.8722 79.1662 26.4283 79.767 26.8075C80.3679 27.1868 81.0518 27.3764 81.8189 27.3764C82.5305 27.3764 83.1506 27.2315 83.679 26.9418C84.2116 26.652 84.6229 26.2429 84.9126 25.7145C85.2067 25.1818 85.3537 24.5554 85.3537 23.8352L85.8651 23.9311H82.1193V22.3011H87.2649V23.7905C87.2649 24.8899 87.0305 25.8445 86.5618 26.6541C86.0973 27.4595 85.4538 28.0817 84.6314 28.5206C83.8132 28.9595 82.8757 29.179 81.8189 29.179C80.6342 29.179 79.5945 28.9062 78.6996 28.3608C77.8089 27.8153 77.1143 27.0419 76.6158 26.0405C76.1172 25.0348 75.8679 23.8416 75.8679 22.4609C75.8679 21.4169 76.0128 20.4794 76.3026 19.6484C76.5923 18.8175 76.9993 18.1122 77.5234 17.5327C78.0518 16.9489 78.6719 16.5036 79.3835 16.1967C80.0994 15.8857 80.8814 15.7301 81.7294 15.7301C82.4368 15.7301 83.0952 15.8345 83.7045 16.0433C84.3182 16.2521 84.8636 16.5483 85.3409 16.9318C85.8224 17.3153 86.2209 17.7713 86.5362 18.2997C86.8516 18.8239 87.0646 19.4055 87.1754 20.0447H85.1491ZM92.476 29.2173C91.8539 29.2173 91.2914 29.1023 90.7885 28.8722C90.2857 28.6378 89.8873 28.299 89.5932 27.8558C89.3034 27.4126 89.1586 26.8693 89.1586 26.2259C89.1586 25.6719 89.2651 25.2159 89.4782 24.858C89.6912 24.5 89.9789 24.2166 90.3411 24.0078C90.7033 23.799 91.1081 23.6413 91.5556 23.5348C92.003 23.4283 92.459 23.3473 92.9235 23.2919C93.5115 23.2237 93.9888 23.1683 94.3553 23.1257C94.7218 23.0788 94.9881 23.0043 95.1543 22.902C95.3205 22.7997 95.4036 22.6335 95.4036 22.4034V22.3587C95.4036 21.8004 95.2459 21.3679 94.9306 21.0611C94.6195 20.7543 94.155 20.6009 93.5371 20.6009C92.8936 20.6009 92.3865 20.7436 92.0158 21.0291C91.6493 21.3104 91.3958 21.6236 91.2551 21.9688L89.459 21.5597C89.6721 20.9631 89.9831 20.4815 90.3922 20.1151C90.8056 19.7443 91.2807 19.4759 91.8176 19.3097C92.3546 19.1392 92.9192 19.054 93.5115 19.054C93.9036 19.054 94.3191 19.1009 94.758 19.1946C95.2012 19.2841 95.6145 19.4503 95.998 19.6932C96.3858 19.9361 96.7033 20.2834 96.9505 20.7351C97.1976 21.1825 97.3212 21.7642 97.3212 22.4801V29H95.4547V27.6577H95.378C95.2544 27.9048 95.0691 28.1477 94.8219 28.3864C94.5748 28.625 94.2573 28.8232 93.8695 28.9808C93.4817 29.1385 93.0172 29.2173 92.476 29.2173ZM92.8915 27.6832C93.4199 27.6832 93.8716 27.5788 94.2466 27.37C94.6259 27.1612 94.9135 26.8885 95.1096 26.5518C95.3098 26.2109 95.41 25.8466 95.41 25.4588V24.1932C95.3418 24.2614 95.2097 24.3253 95.0137 24.3849C94.8219 24.4403 94.6025 24.4893 94.3553 24.532C94.1081 24.5703 93.8674 24.6065 93.633 24.6406C93.3986 24.6705 93.2026 24.696 93.0449 24.7173C92.6742 24.7642 92.3354 24.843 92.0286 24.9538C91.726 25.0646 91.4831 25.2244 91.2999 25.4332C91.1209 25.6378 91.0314 25.9105 91.0314 26.2514C91.0314 26.7244 91.2061 27.0824 91.5556 27.3253C91.905 27.5639 92.3503 27.6832 92.8915 27.6832ZM99.8668 29V19.1818H101.701V20.7798H101.823C102.027 20.2386 102.362 19.8168 102.826 19.5142C103.291 19.2074 103.847 19.054 104.495 19.054C105.151 19.054 105.701 19.2074 106.144 19.5142C106.591 19.821 106.922 20.2429 107.135 20.7798H107.237C107.471 20.2557 107.844 19.8381 108.355 19.527C108.867 19.2116 109.476 19.054 110.184 19.054C111.074 19.054 111.801 19.3331 112.363 19.8913C112.93 20.4496 113.213 21.2912 113.213 22.4162V29H111.302V22.5952C111.302 21.9304 111.121 21.4489 110.759 21.1506C110.397 20.8523 109.964 20.7031 109.461 20.7031C108.839 20.7031 108.355 20.8949 108.01 21.2784C107.665 21.6577 107.493 22.1456 107.493 22.7422V29H105.588V22.4737C105.588 21.9411 105.422 21.5128 105.089 21.1889C104.757 20.8651 104.324 20.7031 103.792 20.7031C103.429 20.7031 103.095 20.799 102.788 20.9908C102.485 21.1783 102.24 21.4403 102.053 21.777C101.87 22.1136 101.778 22.5036 101.778 22.9467V29H99.8668ZM120.007 29.1982C119.039 29.1982 118.206 28.9915 117.507 28.5781C116.813 28.1605 116.276 27.5746 115.896 26.8203C115.521 26.0618 115.334 25.1733 115.334 24.1548C115.334 23.1491 115.521 22.2628 115.896 21.4957C116.276 20.7287 116.804 20.13 117.482 19.6996C118.164 19.2692 118.96 19.054 119.872 19.054C120.426 19.054 120.963 19.1456 121.483 19.3288C122.003 19.5121 122.47 19.7997 122.883 20.1918C123.296 20.5838 123.622 21.093 123.861 21.7195C124.1 22.3416 124.219 23.098 124.219 23.9886V24.6662H116.414V23.2344H122.346C122.346 22.7315 122.244 22.2862 122.039 21.8984C121.835 21.5064 121.547 21.1974 121.176 20.9716C120.81 20.7457 120.379 20.6328 119.885 20.6328C119.348 20.6328 118.879 20.7649 118.479 21.0291C118.083 21.2891 117.776 21.63 117.558 22.0518C117.345 22.4695 117.239 22.9233 117.239 23.4134V24.532C117.239 25.1882 117.354 25.7464 117.584 26.2067C117.818 26.6669 118.144 27.0185 118.562 27.2614C118.98 27.5 119.468 27.6193 120.026 27.6193C120.388 27.6193 120.718 27.5682 121.017 27.4659C121.315 27.3594 121.573 27.2017 121.79 26.9929C122.007 26.7841 122.173 26.5263 122.289 26.2195L124.097 26.5455C123.953 27.0781 123.693 27.5447 123.318 27.9453C122.947 28.3416 122.48 28.6506 121.918 28.8722C121.36 29.0895 120.722 29.1982 120.007 29.1982Z" fill="white"/>
<defs>
<linearGradient id="paint0_linear_408_5708" x1="2" y1="22" x2="158" y2="22" gradientUnits="userSpaceOnUse">
<stop stop-color="#72D0F8"/>
<stop offset="0.272455" stop-color="#24C6DC"/>
<stop offset="0.670591" stop-color="#4B85F0"/>
<stop offset="1" stop-color="#514A9D"/>
</linearGradient>
</defs>
</svg>
