<svg width="171" height="44" viewBox="0 0 171 44" fill="none" xmlns="http://www.w3.org/2000/svg">
<rect x="1" y="1" width="169" height="42" rx="13" fill="url(#paint0_linear_419_4783)"/>
<rect x="1" y="1" width="169" height="42" rx="13" stroke="#808080" stroke-width="2"/>
<path d="M40.5263 15.9091H42.495V25.1903C42.495 26.0298 42.3288 26.7479 41.9964 27.3445C41.6683 27.9411 41.206 28.397 40.6094 28.7124C40.0128 29.0234 39.3139 29.179 38.5128 29.179C37.7756 29.179 37.1129 29.0447 36.5249 28.7763C35.9411 28.5078 35.4787 28.1179 35.1378 27.6065C34.8011 27.0909 34.6328 26.4645 34.6328 25.7273H36.5952C36.5952 26.0895 36.6783 26.4027 36.8445 26.6669C37.0149 26.9311 37.2472 27.1378 37.5412 27.2869C37.8395 27.4318 38.1804 27.5043 38.5639 27.5043C38.9815 27.5043 39.3352 27.4169 39.625 27.2422C39.919 27.0632 40.1428 26.8011 40.2962 26.456C40.4496 26.1108 40.5263 25.6889 40.5263 25.1903V15.9091ZM51.4359 24.9283V19.1818H53.3535V29H51.4743V27.2997H51.372C51.1461 27.8239 50.7839 28.2607 50.2853 28.6101C49.791 28.9553 49.1752 29.1278 48.438 29.1278C47.8074 29.1278 47.2491 28.9893 46.7633 28.7124C46.2818 28.4311 45.9025 28.0156 45.6255 27.4659C45.3528 26.9162 45.2164 26.2365 45.2164 25.4268V19.1818H47.1277V25.1967C47.1277 25.8658 47.313 26.3984 47.6838 26.7947C48.0545 27.1911 48.536 27.3892 49.1284 27.3892C49.4863 27.3892 49.8422 27.2997 50.1958 27.1207C50.5538 26.9418 50.85 26.6712 51.0843 26.3089C51.323 25.9467 51.4402 25.4865 51.4359 24.9283ZM60.038 32.8864C59.2582 32.8864 58.587 32.7841 58.0245 32.5795C57.4663 32.375 57.0103 32.1044 56.6566 31.7678C56.3029 31.4311 56.0387 31.0625 55.864 30.6619L57.5067 29.9844C57.6218 30.1719 57.7752 30.37 57.967 30.5788C58.163 30.7919 58.4272 30.973 58.7596 31.1222C59.0962 31.2713 59.5288 31.3459 60.0572 31.3459C60.7816 31.3459 61.3803 31.169 61.8533 30.8153C62.3263 30.4659 62.5629 29.9077 62.5629 29.1406V27.2102H62.4414C62.3263 27.419 62.1602 27.6513 61.9428 27.907C61.7298 28.1626 61.4357 28.3842 61.0607 28.5717C60.6857 28.7592 60.1978 28.853 59.5969 28.853C58.8214 28.853 58.1225 28.6719 57.5004 28.3097C56.8825 27.9432 56.3924 27.4041 56.0302 26.6925C55.6722 25.9766 55.4933 25.0966 55.4933 24.0526C55.4933 23.0085 55.6701 22.1136 56.0238 21.3679C56.3817 20.6222 56.8718 20.0511 57.494 19.6548C58.1161 19.2543 58.8214 19.054 59.6097 19.054C60.2191 19.054 60.7113 19.1562 61.0863 19.3608C61.4613 19.5611 61.7532 19.7955 61.962 20.0639C62.1751 20.3324 62.3391 20.5689 62.4542 20.7734H62.5948V19.1818H64.4677V29.2173C64.4677 30.0611 64.2717 30.7536 63.8796 31.2947C63.4876 31.8359 62.957 32.2365 62.288 32.4964C61.6232 32.7564 60.8732 32.8864 60.038 32.8864ZM60.0188 27.2678C60.5685 27.2678 61.033 27.1399 61.4123 26.8842C61.7958 26.6243 62.0856 26.2536 62.2816 25.772C62.4819 25.2862 62.582 24.7045 62.582 24.027C62.582 23.3665 62.484 22.7848 62.288 22.282C62.092 21.7791 61.8043 21.3871 61.4251 21.1058C61.0458 20.8203 60.5771 20.6776 60.0188 20.6776C59.4435 20.6776 58.9641 20.8267 58.5806 21.125C58.1971 21.419 57.9073 21.8196 57.7113 22.3267C57.5195 22.8338 57.4237 23.4006 57.4237 24.027C57.4237 24.6705 57.5217 25.2351 57.7177 25.7209C57.9137 26.2067 58.2035 26.5859 58.587 26.8587C58.9748 27.1314 59.4521 27.2678 60.0188 27.2678ZM69.8881 29.2173C69.266 29.2173 68.7035 29.1023 68.2006 28.8722C67.6978 28.6378 67.2994 28.299 67.0053 27.8558C66.7156 27.4126 66.5707 26.8693 66.5707 26.2259C66.5707 25.6719 66.6772 25.2159 66.8903 24.858C67.1033 24.5 67.391 24.2166 67.7532 24.0078C68.1154 23.799 68.5202 23.6413 68.9677 23.5348C69.4151 23.4283 69.8711 23.3473 70.3356 23.2919C70.9237 23.2237 71.4009 23.1683 71.7674 23.1257C72.1339 23.0788 72.4002 23.0043 72.5664 22.902C72.7326 22.7997 72.8157 22.6335 72.8157 22.4034V22.3587C72.8157 21.8004 72.658 21.3679 72.3427 21.0611C72.0316 20.7543 71.5671 20.6009 70.9492 20.6009C70.3058 20.6009 69.7987 20.7436 69.4279 21.0291C69.0614 21.3104 68.8079 21.6236 68.6673 21.9688L66.8711 21.5597C67.0842 20.9631 67.3952 20.4815 67.8043 20.1151C68.2177 19.7443 68.6928 19.4759 69.2298 19.3097C69.7667 19.1392 70.3313 19.054 70.9237 19.054C71.3157 19.054 71.7312 19.1009 72.1701 19.1946C72.6133 19.2841 73.0266 19.4503 73.4102 19.6932C73.7979 19.9361 74.1154 20.2834 74.3626 20.7351C74.6097 21.1825 74.7333 21.7642 74.7333 22.4801V29H72.8668V27.6577H72.7901C72.6665 27.9048 72.4812 28.1477 72.234 28.3864C71.9869 28.625 71.6694 28.8232 71.2816 28.9808C70.8938 29.1385 70.4293 29.2173 69.8881 29.2173ZM70.3036 27.6832C70.832 27.6832 71.2837 27.5788 71.6587 27.37C72.038 27.1612 72.3256 26.8885 72.5217 26.5518C72.7219 26.2109 72.8221 25.8466 72.8221 25.4588V24.1932C72.7539 24.2614 72.6218 24.3253 72.4258 24.3849C72.234 24.4403 72.0146 24.4893 71.7674 24.532C71.5202 24.5703 71.2795 24.6065 71.0451 24.6406C70.8107 24.6705 70.6147 24.696 70.457 24.7173C70.0863 24.7642 69.7475 24.843 69.4407 24.9538C69.1381 25.0646 68.8952 25.2244 68.712 25.4332C68.533 25.6378 68.4435 25.9105 68.4435 26.2514C68.4435 26.7244 68.6183 27.0824 68.9677 27.3253C69.3171 27.5639 69.7624 27.6832 70.3036 27.6832ZM77.2789 29V19.1818H79.1262V20.7415H79.2285C79.4075 20.2131 79.7228 19.7976 80.1745 19.495C80.6305 19.1882 81.1461 19.0348 81.7214 19.0348C81.8407 19.0348 81.9814 19.0391 82.1433 19.0476C82.3095 19.0561 82.4395 19.0668 82.5332 19.0795V20.9077C82.4565 20.8864 82.3201 20.8629 82.1241 20.8374C81.9281 20.8075 81.7321 20.7926 81.536 20.7926C81.0843 20.7926 80.6816 20.8885 80.3279 21.0803C79.9785 21.2678 79.7015 21.5298 79.497 21.8665C79.2924 22.1989 79.1902 22.5781 79.1902 23.0043V29H77.2789ZM91.8081 29.2173C91.1859 29.2173 90.6234 29.1023 90.1206 28.8722C89.6177 28.6378 89.2193 28.299 88.9252 27.8558C88.6355 27.4126 88.4906 26.8693 88.4906 26.2259C88.4906 25.6719 88.5971 25.2159 88.8102 24.858C89.0233 24.5 89.3109 24.2166 89.6731 24.0078C90.0353 23.799 90.4402 23.6413 90.8876 23.5348C91.335 23.4283 91.791 23.3473 92.2555 23.2919C92.8436 23.2237 93.3208 23.1683 93.6873 23.1257C94.0538 23.0788 94.3201 23.0043 94.4863 22.902C94.6525 22.7997 94.7356 22.6335 94.7356 22.4034V22.3587C94.7356 21.8004 94.5779 21.3679 94.2626 21.0611C93.9515 20.7543 93.487 20.6009 92.8691 20.6009C92.2257 20.6009 91.7186 20.7436 91.3478 21.0291C90.9814 21.3104 90.7278 21.6236 90.5872 21.9688L88.791 21.5597C89.0041 20.9631 89.3152 20.4815 89.7243 20.1151C90.1376 19.7443 90.6127 19.4759 91.1497 19.3097C91.6866 19.1392 92.2512 19.054 92.8436 19.054C93.2356 19.054 93.6511 19.1009 94.09 19.1946C94.5332 19.2841 94.9466 19.4503 95.3301 19.6932C95.7179 19.9361 96.0353 20.2834 96.2825 20.7351C96.5297 21.1825 96.6532 21.7642 96.6532 22.4801V29H94.7868V27.6577H94.7101C94.5865 27.9048 94.4011 28.1477 94.1539 28.3864C93.9068 28.625 93.5893 28.8232 93.2015 28.9808C92.8137 29.1385 92.3493 29.2173 91.8081 29.2173ZM92.2235 27.6832C92.752 27.6832 93.2037 27.5788 93.5787 27.37C93.9579 27.1612 94.2456 26.8885 94.4416 26.5518C94.6419 26.2109 94.742 25.8466 94.742 25.4588V24.1932C94.6738 24.2614 94.5417 24.3253 94.3457 24.3849C94.1539 24.4403 93.9345 24.4893 93.6873 24.532C93.4402 24.5703 93.1994 24.6065 92.965 24.6406C92.7306 24.6705 92.5346 24.696 92.377 24.7173C92.0062 24.7642 91.6674 24.843 91.3606 24.9538C91.0581 25.0646 90.8152 25.2244 90.6319 25.4332C90.4529 25.6378 90.3635 25.9105 90.3635 26.2514C90.3635 26.7244 90.5382 27.0824 90.8876 27.3253C91.237 27.5639 91.6824 27.6832 92.2235 27.6832ZM101.11 23.1705V29H99.1989V15.9091H101.085V20.7798H101.206C101.436 20.2514 101.788 19.8317 102.261 19.5206C102.734 19.2095 103.352 19.054 104.114 19.054C104.788 19.054 105.376 19.1925 105.879 19.4695C106.386 19.7464 106.778 20.1598 107.055 20.7095C107.336 21.255 107.477 21.9368 107.477 22.755V29H105.565V22.9851C105.565 22.2649 105.38 21.7067 105.009 21.3104C104.638 20.9098 104.123 20.7095 103.462 20.7095C103.011 20.7095 102.606 20.8054 102.248 20.9972C101.894 21.1889 101.615 21.4702 101.411 21.8409C101.21 22.2074 101.11 22.6506 101.11 23.1705ZM114.163 29.1982C113.242 29.1982 112.439 28.9872 111.753 28.5653C111.067 28.1435 110.534 27.5533 110.155 26.7947C109.776 26.0362 109.586 25.1499 109.586 24.1357C109.586 23.1172 109.776 22.2266 110.155 21.4638C110.534 20.701 111.067 20.1087 111.753 19.6868C112.439 19.2649 113.242 19.054 114.163 19.054C115.083 19.054 115.886 19.2649 116.572 19.6868C117.259 20.1087 117.791 20.701 118.17 21.4638C118.55 22.2266 118.739 23.1172 118.739 24.1357C118.739 25.1499 118.55 26.0362 118.17 26.7947C117.791 27.5533 117.259 28.1435 116.572 28.5653C115.886 28.9872 115.083 29.1982 114.163 29.1982ZM114.169 27.5938C114.766 27.5938 115.26 27.4361 115.652 27.1207C116.044 26.8054 116.334 26.3857 116.521 25.8615C116.713 25.3374 116.809 24.7599 116.809 24.1293C116.809 23.5028 116.713 22.9276 116.521 22.4034C116.334 21.875 116.044 21.451 115.652 21.1314C115.26 20.8118 114.766 20.652 114.169 20.652C113.568 20.652 113.07 20.8118 112.673 21.1314C112.281 21.451 111.989 21.875 111.798 22.4034C111.61 22.9276 111.516 23.5028 111.516 24.1293C111.516 24.7599 111.61 25.3374 111.798 25.8615C111.989 26.3857 112.281 26.8054 112.673 27.1207C113.07 27.4361 113.568 27.5938 114.169 27.5938ZM120.873 29V19.1818H122.72V20.7415H122.822C123.001 20.2131 123.317 19.7976 123.768 19.495C124.224 19.1882 124.74 19.0348 125.315 19.0348C125.434 19.0348 125.575 19.0391 125.737 19.0476C125.903 19.0561 126.033 19.0668 126.127 19.0795V20.9077C126.05 20.8864 125.914 20.8629 125.718 20.8374C125.522 20.8075 125.326 20.7926 125.13 20.7926C124.678 20.7926 124.275 20.8885 123.922 21.0803C123.572 21.2678 123.295 21.5298 123.091 21.8665C122.886 22.1989 122.784 22.5781 122.784 23.0043V29H120.873ZM130.55 29.2173C129.928 29.2173 129.366 29.1023 128.863 28.8722C128.36 28.6378 127.961 28.299 127.667 27.8558C127.378 27.4126 127.233 26.8693 127.233 26.2259C127.233 25.6719 127.339 25.2159 127.552 24.858C127.765 24.5 128.053 24.2166 128.415 24.0078C128.778 23.799 129.182 23.6413 129.63 23.5348C130.077 23.4283 130.533 23.3473 130.998 23.2919C131.586 23.2237 132.063 23.1683 132.43 23.1257C132.796 23.0788 133.062 23.0043 133.229 22.902C133.395 22.7997 133.478 22.6335 133.478 22.4034V22.3587C133.478 21.8004 133.32 21.3679 133.005 21.0611C132.694 20.7543 132.229 20.6009 131.611 20.6009C130.968 20.6009 130.461 20.7436 130.09 21.0291C129.724 21.3104 129.47 21.6236 129.329 21.9688L127.533 21.5597C127.746 20.9631 128.057 20.4815 128.466 20.1151C128.88 19.7443 129.355 19.4759 129.892 19.3097C130.429 19.1392 130.993 19.054 131.586 19.054C131.978 19.054 132.393 19.1009 132.832 19.1946C133.275 19.2841 133.689 19.4503 134.072 19.6932C134.46 19.9361 134.778 20.2834 135.025 20.7351C135.272 21.1825 135.395 21.7642 135.395 22.4801V29H133.529V27.6577H133.452C133.329 27.9048 133.143 28.1477 132.896 28.3864C132.649 28.625 132.331 28.8232 131.944 28.9808C131.556 29.1385 131.091 29.2173 130.55 29.2173ZM130.966 27.6832C131.494 27.6832 131.946 27.5788 132.321 27.37C132.7 27.1612 132.988 26.8885 133.184 26.5518C133.384 26.2109 133.484 25.8466 133.484 25.4588V24.1932C133.416 24.2614 133.284 24.3253 133.088 24.3849C132.896 24.4403 132.677 24.4893 132.43 24.532C132.182 24.5703 131.942 24.6065 131.707 24.6406C131.473 24.6705 131.277 24.696 131.119 24.7173C130.748 24.7642 130.41 24.843 130.103 24.9538C129.8 25.0646 129.557 25.2244 129.374 25.4332C129.195 25.6378 129.106 25.9105 129.106 26.2514C129.106 26.7244 129.28 27.0824 129.63 27.3253C129.979 27.5639 130.425 27.6832 130.966 27.6832Z" fill="white"/>
<defs>
<linearGradient id="paint0_linear_419_4783" x1="2" y1="22" x2="169" y2="22" gradientUnits="userSpaceOnUse">
<stop stop-color="#72D0F8"/>
<stop offset="0.272455" stop-color="#24C6DC"/>
<stop offset="0.670591" stop-color="#4B85F0"/>
<stop offset="1" stop-color="#514A9D"/>
</linearGradient>
</defs>
</svg>
