<svg width="40" height="40" viewBox="0 0 40 40" fill="none" xmlns="http://www.w3.org/2000/svg">
<rect width="40" height="40" rx="20" fill="#1E7B9D"/>
<path d="M20 8C18.4241 8 16.8637 8.3181 15.4078 8.93612C13.9519 9.55415 12.629 10.46 11.5147 11.602C9.26428 13.9083 8 17.0363 8 20.2979C8 25.7336 11.444 30.3453 16.208 31.981C16.808 32.0793 17 31.6981 17 31.3661V29.2877C13.676 30.0256 12.968 27.6398 12.968 27.6398C12.416 26.2132 11.636 25.832 11.636 25.832C10.544 25.0695 11.72 25.0941 11.72 25.0941C12.92 25.1802 13.556 26.3608 13.556 26.3608C14.6 28.2301 16.364 27.6767 17.048 27.3815C17.156 26.5822 17.468 26.0411 17.804 25.7336C15.14 25.4262 12.344 24.3685 12.344 19.683C12.344 18.318 12.8 17.2234 13.58 16.3503C13.46 16.0428 13.04 14.7639 13.7 13.1036C13.7 13.1036 14.708 12.7716 17 14.358C17.948 14.0875 18.98 13.9522 20 13.9522C21.02 13.9522 22.052 14.0875 23 14.358C25.292 12.7716 26.3 13.1036 26.3 13.1036C26.96 14.7639 26.54 16.0428 26.42 16.3503C27.2 17.2234 27.656 18.318 27.656 19.683C27.656 24.3808 24.848 25.4139 22.172 25.7213C22.604 26.1025 23 26.8527 23 27.9964V31.3661C23 31.6981 23.192 32.0916 23.804 31.981C28.568 30.333 32 25.7336 32 20.2979C32 18.6829 31.6896 17.0838 31.0866 15.5917C30.4835 14.0997 29.5996 12.7439 28.4853 11.602C27.371 10.46 26.0481 9.55415 24.5922 8.93612C23.1363 8.3181 21.5759 8 20 8Z" fill="#F2F2F2"/>
</svg>
