<svg width="93" height="124" viewBox="0 0 93 124" fill="none" xmlns="http://www.w3.org/2000/svg">
<g filter="url(#filter0_d_409_4837)">
<rect width="88.2051" height="120" rx="16.4103" fill="#232323" shape-rendering="crispEdges"/>
<rect x="1.02564" y="1.02564" width="86.1538" height="117.949" rx="15.3846" stroke="#B9BABA" stroke-width="2.05128" shape-rendering="crispEdges"/>
<rect x="16.923" y="17.1144" width="54.359" height="54.359" rx="27.1795" fill="#808080"/>
<rect x="16.923" y="17.1144" width="54.359" height="54.359" rx="27.1795" stroke="#24C2AF" stroke-width="1.02564"/>
<path d="M44.1016 28.2969C42.0004 28.2969 39.9198 28.721 37.9786 29.545C36.0374 30.3691 34.2736 31.5769 32.7879 33.0995C29.7873 36.1746 28.1016 40.3453 28.1016 44.6941C28.1016 51.9417 32.6936 58.0907 39.0456 60.2715C39.8456 60.4027 40.1016 59.8944 40.1016 59.4516V56.6805C35.6696 57.6643 34.7256 54.4833 34.7256 54.4833C33.9896 52.5812 32.9496 52.0729 32.9496 52.0729C31.4936 51.0562 33.0616 51.089 33.0616 51.089C34.6616 51.2038 35.5096 52.778 35.5096 52.778C36.9016 55.2703 39.2536 54.5325 40.1656 54.1389C40.3096 53.0731 40.7256 52.3516 41.1736 51.9417C37.6216 51.5318 33.8936 50.1216 33.8936 43.8743C33.8936 42.0542 34.5016 40.5948 35.5416 39.4306C35.3816 39.0207 34.8216 37.3154 35.7016 35.1017C35.7016 35.1017 37.0456 34.659 40.1016 36.7742C41.3656 36.4135 42.7416 36.2331 44.1016 36.2331C45.4616 36.2331 46.8376 36.4135 48.1016 36.7742C51.1576 34.659 52.5016 35.1017 52.5016 35.1017C53.3816 37.3154 52.8216 39.0207 52.6616 39.4306C53.7016 40.5948 54.3096 42.0542 54.3096 43.8743C54.3096 50.138 50.5656 51.5154 46.9976 51.9253C47.5736 52.4336 48.1016 53.4338 48.1016 54.9588V59.4516C48.1016 59.8944 48.3576 60.4191 49.1736 60.2715C55.5256 58.0743 60.1016 51.9417 60.1016 44.6941C60.1016 42.5408 59.6877 40.4086 58.8837 38.4192C58.0796 36.4298 56.901 34.6221 55.4153 33.0995C53.9296 31.5769 52.1657 30.3691 50.2245 29.545C48.2833 28.721 46.2027 28.2969 44.1016 28.2969Z" fill="#FCFFFF"/>
<rect x="13.8457" y="80.1953" width="60.5128" height="23.2051" rx="4" fill="#232323"/>
<path d="M31.3044 90.143C31.2082 89.8487 31.0815 89.585 30.9241 89.3519C30.7697 89.1159 30.5847 88.9149 30.369 88.7488C30.1563 88.5827 29.9145 88.456 29.6435 88.3686C29.3725 88.2811 29.0753 88.2374 28.7519 88.2374C28.2216 88.2374 27.7394 88.3744 27.3052 88.6483C26.8711 88.9222 26.5258 89.3257 26.2694 89.8589C26.013 90.3922 25.8848 91.0463 25.8848 91.8214C25.8848 92.5964 26.0144 93.2505 26.2738 93.7838C26.5331 94.317 26.8842 94.7205 27.3271 94.9944C27.77 95.2683 28.2682 95.4053 28.8218 95.4053C29.3347 95.4053 29.7863 95.296 30.1767 95.0775C30.5701 94.856 30.876 94.5443 31.0946 94.1422C31.316 93.7371 31.4267 93.2607 31.4267 92.713L31.7589 92.7829H29.0666V91.8214H32.4757V92.7829C32.4757 93.5201 32.3183 94.1611 32.0037 94.706C31.6919 95.2508 31.2607 95.6733 30.71 95.9734C30.1622 96.2707 29.5328 96.4193 28.8218 96.4193C28.0293 96.4193 27.3329 96.2328 26.7327 95.8598C26.1354 95.4869 25.6692 94.9565 25.3341 94.2689C25.0019 93.5813 24.8358 92.7654 24.8358 91.8214C24.8358 91.1133 24.9305 90.4767 25.1199 89.9114C25.3122 89.3432 25.5832 88.8595 25.9329 88.4603C26.2825 88.0612 26.6963 87.7552 27.1741 87.5425C27.652 87.3298 28.1779 87.2234 28.7519 87.2234C29.2239 87.2234 29.6639 87.2948 30.0718 87.4376C30.4827 87.5775 30.8484 87.7771 31.1689 88.0364C31.4923 88.2928 31.7618 88.6002 31.9774 88.9586C32.1931 89.3141 32.3417 89.7089 32.4232 90.143H31.3044ZM34.6129 96.2969V89.5836H35.6444V96.2969H34.6129ZM35.1374 88.4647C34.9364 88.4647 34.763 88.3962 34.6173 88.2593C34.4745 88.1223 34.4031 87.9577 34.4031 87.7654C34.4031 87.5731 34.4745 87.4085 34.6173 87.2715C34.763 87.1346 34.9364 87.0661 35.1374 87.0661C35.3385 87.0661 35.5104 87.1346 35.6531 87.2715C35.7988 87.4085 35.8717 87.5731 35.8717 87.7654C35.8717 87.9577 35.7988 88.1223 35.6531 88.2593C35.5104 88.3962 35.3385 88.4647 35.1374 88.4647ZM40.4532 89.5836V90.4577H36.9742V89.5836H40.4532ZM37.9881 87.9752H39.0196V94.3738C39.0196 94.6652 39.0619 94.8837 39.1464 95.0294C39.2338 95.1722 39.3445 95.2683 39.4785 95.3179C39.6155 95.3645 39.7597 95.3878 39.9112 95.3878C40.0249 95.3878 40.1181 95.382 40.1909 95.3703C40.2638 95.3557 40.3221 95.3441 40.3658 95.3353L40.5756 96.2619C40.5056 96.2881 40.408 96.3144 40.2827 96.3406C40.1574 96.3697 39.9986 96.3843 39.8063 96.3843C39.515 96.3843 39.2294 96.3216 38.9497 96.1964C38.6729 96.0711 38.4427 95.8802 38.2591 95.6238C38.0785 95.3674 37.9881 95.044 37.9881 94.6535V87.9752ZM43.1805 92.2584V96.2969H42.149V87.3458H43.1805V90.6325H43.2679C43.4252 90.2858 43.6612 90.0105 43.9759 89.8065C44.2935 89.5996 44.716 89.4962 45.2434 89.4962C45.7008 89.4962 46.1015 89.588 46.4453 89.7715C46.7891 89.9522 47.0557 90.2304 47.2451 90.6063C47.4374 90.9793 47.5336 91.4542 47.5336 92.0311V96.2969H46.5021V92.1011C46.5021 91.5679 46.3637 91.1556 46.0869 90.8642C45.813 90.5699 45.4328 90.4227 44.9462 90.4227C44.6082 90.4227 44.3052 90.4941 44.0371 90.6369C43.7719 90.7797 43.5622 90.988 43.4077 91.2619C43.2562 91.5358 43.1805 91.868 43.1805 92.2584ZM53.6514 93.5521V89.5836H54.6829V96.2969H53.6514V95.1605H53.5815C53.4241 95.5014 53.1794 95.7913 52.8472 96.0303C52.515 96.2663 52.0954 96.3843 51.5885 96.3843C51.1689 96.3843 50.7959 96.2925 50.4696 96.1089C50.1432 95.9225 49.8868 95.6427 49.7003 95.2698C49.5139 94.8939 49.4206 94.4204 49.4206 93.8493V89.5836H50.4521V93.7794C50.4521 94.2689 50.589 94.6593 50.8629 94.9507C51.1397 95.2421 51.4923 95.3878 51.9206 95.3878C52.177 95.3878 52.4378 95.3222 52.703 95.1911C52.971 95.06 53.1954 94.8589 53.376 94.588C53.5596 94.317 53.6514 93.9717 53.6514 93.5521ZM56.7119 96.2969V87.3458H57.7434V90.65H57.8308C57.9066 90.5335 58.0115 90.3849 58.1455 90.2042C58.2824 90.0207 58.4777 89.8575 58.7312 89.7147C58.9876 89.569 59.3343 89.4962 59.7714 89.4962C60.3366 89.4962 60.8349 89.6375 61.2661 89.9201C61.6974 90.2028 62.0339 90.6034 62.2757 91.122C62.5176 91.6407 62.6385 92.2526 62.6385 92.9577C62.6385 93.6687 62.5176 94.2849 62.2757 94.8065C62.0339 95.3251 61.6988 95.7272 61.2705 96.0128C60.8422 96.2954 60.3483 96.4367 59.7888 96.4367C59.3576 96.4367 59.0123 96.3653 58.753 96.2226C58.4937 96.0769 58.2941 95.9123 58.1542 95.7287C58.0144 95.5422 57.9066 95.3878 57.8308 95.2654H57.7084V96.2969H56.7119ZM57.7259 92.9402C57.7259 93.4472 57.8002 93.8945 57.9488 94.282C58.0974 94.6666 58.3145 94.9682 58.6 95.1867C58.8856 95.4024 59.2352 95.5102 59.649 95.5102C60.0802 95.5102 60.4401 95.3965 60.7285 95.1693C61.0199 94.9391 61.2384 94.6302 61.3841 94.2427C61.5327 93.8522 61.607 93.4181 61.607 92.9402C61.607 92.4682 61.5342 92.0428 61.3885 91.664C61.2457 91.2823 61.0286 90.9807 60.7373 90.7593C60.4488 90.5349 60.086 90.4227 59.649 90.4227C59.2294 90.4227 58.8768 90.5291 58.5913 90.7418C58.3057 90.9516 58.0901 91.2459 57.9444 91.6247C57.7988 92.0005 57.7259 92.4391 57.7259 92.9402Z" fill="#FFA500"/>
</g>
<defs>
<filter id="filter0_d_409_4837" x="0" y="0" width="92.2051" height="124" filterUnits="userSpaceOnUse" color-interpolation-filters="sRGB">
<feFlood flood-opacity="0" result="BackgroundImageFix"/>
<feColorMatrix in="SourceAlpha" type="matrix" values="0 0 0 0 0 0 0 0 0 0 0 0 0 0 0 0 0 0 127 0" result="hardAlpha"/>
<feOffset dx="4" dy="4"/>
<feComposite in2="hardAlpha" operator="out"/>
<feColorMatrix type="matrix" values="0 0 0 0 0.462745 0 0 0 0 0.482353 0 0 0 0 0.486275 0 0 0 1 0"/>
<feBlend mode="normal" in2="BackgroundImageFix" result="effect1_dropShadow_409_4837"/>
<feBlend mode="normal" in="SourceGraphic" in2="effect1_dropShadow_409_4837" result="shape"/>
</filter>
</defs>
</svg>
