<svg width="40" height="40" viewBox="0 0 40 40" fill="none" xmlns="http://www.w3.org/2000/svg">
<rect width="40" height="40" rx="20" fill="#1E7B9D"/>
<path d="M13.0367 11.1837C13.0364 11.8516 12.7707 12.492 12.2982 12.9641C11.8257 13.4361 11.185 13.7011 10.5171 13.7008C9.84919 13.7005 9.20877 13.4348 8.73672 12.9623C8.26467 12.4898 7.99967 11.8491 8 11.1812C8.00033 10.5133 8.26598 9.87283 8.7385 9.40078C9.21102 8.92874 9.85171 8.66373 10.5196 8.66406C11.1875 8.6644 11.828 8.93004 12.3 9.40256C12.7721 9.87509 13.0371 10.5158 13.0367 11.1837ZM13.1123 15.5656H8.07555V31.3306H13.1123V15.5656ZM21.0703 15.5656H16.0588V31.3306H21.0199V23.0578C21.0199 18.4492 27.0262 18.021 27.0262 23.0578V31.3306H32V21.3453C32 13.5761 23.1102 13.8657 21.0199 17.6811L21.0703 15.5656Z" fill="#F2F2F2"/>
</svg>
