<svg width="40" height="40" viewBox="0 0 40 40" fill="none" xmlns="http://www.w3.org/2000/svg">
<rect width="40" height="40" rx="20" fill="#1E7B9D"/>
<path d="M29.6 10.3984H10.4C9.08 10.3984 8 11.4784 8 12.7984V27.1984C8 28.5184 9.08 29.5984 10.4 29.5984H29.6C30.92 29.5984 32 28.5184 32 27.1984V12.7984C32 11.4784 30.92 10.3984 29.6 10.3984ZM29.12 15.4984L21.272 20.4064C20.492 20.8984 19.508 20.8984 18.728 20.4064L10.88 15.4984C10.7597 15.4309 10.6543 15.3396 10.5703 15.2302C10.4862 15.1207 10.4253 14.9954 10.3911 14.8617C10.3569 14.728 10.3502 14.5888 10.3714 14.4524C10.3926 14.3161 10.4412 14.1854 10.5143 14.0684C10.5875 13.9514 10.6836 13.8504 10.7969 13.7716C10.9102 13.6928 11.0382 13.6379 11.1734 13.61C11.3085 13.5821 11.4479 13.582 11.5831 13.6096C11.7184 13.6372 11.8466 13.6919 11.96 13.7704L20 18.7984L28.04 13.7704C28.1534 13.6919 28.2817 13.6372 28.4169 13.6096C28.5521 13.582 28.6915 13.5821 28.8266 13.61C28.9618 13.6379 29.0898 13.6928 29.2031 13.7716C29.3164 13.8504 29.4125 13.9514 29.4857 14.0684C29.5588 14.1854 29.6074 14.3161 29.6286 14.4524C29.6498 14.5888 29.6431 14.728 29.6089 14.8617C29.5747 14.9954 29.5138 15.1207 29.4297 15.2302C29.3457 15.3396 29.2403 15.4309 29.12 15.4984Z" fill="#F2F2F2"/>
</svg>
