<svg width="93" height="124" viewBox="0 0 93 124" fill="none" xmlns="http://www.w3.org/2000/svg">
<g filter="url(#filter0_d_409_4856)">
<rect width="88.2051" height="120" rx="16.4103" fill="#232323" shape-rendering="crispEdges"/>
<rect x="1.02564" y="1.02564" width="86.1538" height="117.949" rx="15.3846" stroke="#B9BABA" stroke-width="2.05128" shape-rendering="crispEdges"/>
<rect x="16.923" y="17.1144" width="54.359" height="54.359" rx="27.1795" fill="#808080"/>
<rect x="16.923" y="17.1144" width="54.359" height="54.359" rx="27.1795" stroke="#24C2AF" stroke-width="1.02564"/>
<rect x="28.1016" y="28.2969" width="32" height="32" rx="6.15385" fill="black"/>
<path d="M48.9082 39.0547H50.3851V49.3932H48.9082V39.0547Z" fill="white"/>
<path d="M41.8484 49.5408C40.4995 49.5408 39.4903 49.2208 38.8207 48.5808C38.1512 47.9408 37.8164 46.9759 37.8164 45.6861V39.0547H39.2786V45.8928C39.2786 46.7396 39.4903 47.3698 39.9136 47.7833C40.337 48.187 40.9819 48.3888 41.8484 48.3888C42.7247 48.3888 43.3696 48.187 43.7832 47.7833C44.1967 47.3796 44.4035 46.7495 44.4035 45.8928V39.0547H45.8656V45.6861C45.8656 47.0055 45.5358 47.9802 44.8761 48.6104C44.2263 49.2307 43.217 49.5408 41.8484 49.5408Z" fill="white"/>
<rect x="13.8457" y="80.1953" width="60.5128" height="23.2051" rx="4" fill="#232323"/>
<path d="M32.2834 87.3458V96.2969H31.2344L26.3568 89.2689H26.2694V96.2969H25.1855V87.3458H26.2344L31.1295 94.3913H31.2169V87.3458H32.2834ZM37.1271 96.4367C36.4803 96.4367 35.9223 96.294 35.4532 96.0084C34.987 95.72 34.6271 95.3179 34.3736 94.8021C34.1231 94.2835 33.9978 93.6803 33.9978 92.9927C33.9978 92.305 34.1231 91.699 34.3736 91.1745C34.6271 90.6471 34.9797 90.2363 35.4313 89.942C35.8859 89.6448 36.4162 89.4962 37.0222 89.4962C37.3719 89.4962 37.7172 89.5545 38.0581 89.671C38.399 89.7876 38.7093 89.9769 38.989 90.2392C39.2687 90.4985 39.4916 90.8423 39.6577 91.2707C39.8238 91.699 39.9069 92.2264 39.9069 92.8528V93.2899H34.732V92.3983H38.8579C38.8579 92.0195 38.7821 91.6815 38.6306 91.3843C38.482 91.0871 38.2693 90.8525 37.9925 90.6806C37.7186 90.5087 37.3952 90.4227 37.0222 90.4227C36.6114 90.4227 36.2559 90.5247 35.9558 90.7287C35.6586 90.9297 35.4299 91.192 35.2696 91.5154C35.1094 91.8388 35.0292 92.1856 35.0292 92.5556V93.15C35.0292 93.657 35.1166 94.0868 35.2915 94.4394C35.4692 94.789 35.7154 95.0556 36.0301 95.2392C36.3448 95.4198 36.7105 95.5102 37.1271 95.5102C37.3981 95.5102 37.6429 95.4723 37.8614 95.3965C38.0828 95.3179 38.2737 95.2013 38.4339 95.0469C38.5942 94.8895 38.718 94.6943 38.8055 94.4612L39.802 94.7409C39.6971 95.0789 39.5208 95.3761 39.2731 95.6325C39.0254 95.886 38.7195 96.0842 38.3553 96.2269C37.9911 96.3668 37.5817 96.4367 37.1271 96.4367ZM42.0648 89.5836L43.6732 92.3283L45.2816 89.5836H46.4704L44.3026 92.9402L46.4704 96.2969H45.2816L43.6732 93.692L42.0648 96.2969H40.876L43.0089 92.9402L40.876 89.5836H42.0648ZM50.8618 89.5836V90.4577H47.3828V89.5836H50.8618ZM48.3968 87.9752H49.4283V94.3738C49.4283 94.6652 49.4705 94.8837 49.555 95.0294C49.6424 95.1722 49.7532 95.2683 49.8872 95.3179C50.0241 95.3645 50.1684 95.3878 50.3199 95.3878C50.4335 95.3878 50.5268 95.382 50.5996 95.3703C50.6724 95.3557 50.7307 95.3441 50.7744 95.3353L50.9842 96.2619C50.9143 96.2881 50.8167 96.3144 50.6914 96.3406C50.5661 96.3697 50.4073 96.3843 50.215 96.3843C49.9236 96.3843 49.6381 96.3216 49.3583 96.1964C49.0815 96.0711 48.8513 95.8802 48.6678 95.6238C48.4871 95.3674 48.3968 95.044 48.3968 94.6535V87.9752ZM58.4274 87.3458H59.5113V93.2724C59.5113 93.8843 59.3671 94.4306 59.0786 94.9114C58.7931 95.3892 58.3895 95.7666 57.868 96.0434C57.3464 96.3173 56.7345 96.4542 56.0323 96.4542C55.3301 96.4542 54.7182 96.3173 54.1966 96.0434C53.6751 95.7666 53.2701 95.3892 52.9816 94.9114C52.696 94.4306 52.5533 93.8843 52.5533 93.2724V87.3458H53.6372V93.185C53.6372 93.622 53.7333 94.011 53.9256 94.3519C54.118 94.6899 54.3918 94.9565 54.7473 95.1518C55.1057 95.3441 55.534 95.4402 56.0323 95.4402C56.5305 95.4402 56.9589 95.3441 57.3173 95.1518C57.6756 94.9565 57.9495 94.6899 58.1389 94.3519C58.3312 94.011 58.4274 93.622 58.4274 93.185V87.3458ZM61.536 96.2969V89.5836H62.5675V96.2969H61.536ZM62.0605 88.4647C61.8594 88.4647 61.6861 88.3962 61.5404 88.2593C61.3976 88.1223 61.3262 87.9577 61.3262 87.7654C61.3262 87.5731 61.3976 87.4085 61.5404 87.2715C61.6861 87.1346 61.8594 87.0661 62.0605 87.0661C62.2615 87.0661 62.4334 87.1346 62.5762 87.2715C62.7219 87.4085 62.7947 87.5731 62.7947 87.7654C62.7947 87.9577 62.7219 88.1223 62.5762 88.2593C62.4334 88.3962 62.2615 88.4647 62.0605 88.4647Z" fill="#FFA500"/>
</g>
<defs>
<filter id="filter0_d_409_4856" x="0" y="0" width="92.2051" height="124" filterUnits="userSpaceOnUse" color-interpolation-filters="sRGB">
<feFlood flood-opacity="0" result="BackgroundImageFix"/>
<feColorMatrix in="SourceAlpha" type="matrix" values="0 0 0 0 0 0 0 0 0 0 0 0 0 0 0 0 0 0 127 0" result="hardAlpha"/>
<feOffset dx="4" dy="4"/>
<feComposite in2="hardAlpha" operator="out"/>
<feColorMatrix type="matrix" values="0 0 0 0 0.462745 0 0 0 0 0.482353 0 0 0 0 0.486275 0 0 0 1 0"/>
<feBlend mode="normal" in2="BackgroundImageFix" result="effect1_dropShadow_409_4856"/>
<feBlend mode="normal" in="SourceGraphic" in2="effect1_dropShadow_409_4856" result="shape"/>
</filter>
</defs>
</svg>
