<svg width="93" height="124" viewBox="0 0 93 124" fill="none" xmlns="http://www.w3.org/2000/svg">
<g filter="url(#filter0_d_409_4814)">
<rect width="88.2051" height="120" rx="16.4103" fill="#232323" shape-rendering="crispEdges"/>
<rect x="1.02564" y="1.02564" width="86.1538" height="117.949" rx="15.3846" stroke="#B9BABA" stroke-width="2.05128" shape-rendering="crispEdges"/>
<rect x="16.923" y="17.1144" width="54.359" height="54.359" rx="27.1795" fill="#808080"/>
<rect x="16.923" y="17.1144" width="54.359" height="54.359" rx="27.1795" stroke="#24C2AF" stroke-width="1.02564"/>
<path d="M42.4468 41.4091C41.8825 41.7349 41.4276 42.2207 41.1394 42.8051C40.8512 43.3895 40.7428 44.0462 40.8278 44.6922C40.9129 45.3382 41.1876 45.9444 41.6171 46.4343C42.0467 46.9242 42.6119 47.2757 43.2413 47.4444C43.8706 47.6131 44.5359 47.5914 45.1529 47.382C45.7699 47.1727 46.311 46.785 46.7077 46.2682C47.1044 45.7513 47.339 45.1284 47.3817 44.4782C47.4245 43.8281 47.2734 43.1798 46.9478 42.6155C46.7315 42.2407 46.4435 41.9122 46.1002 41.6487C45.757 41.3852 45.3652 41.1919 44.9472 41.0799C44.5292 40.9679 44.0933 40.9393 43.6642 40.9958C43.2352 41.0523 42.8215 41.1927 42.4468 41.4091ZM57.2134 44.984C56.9969 44.7369 56.7688 44.4891 56.529 44.2406C56.6962 44.0636 56.8586 43.8871 57.016 43.7112C59.9767 40.3834 61.2274 37.0446 60.0689 35.0394C58.9584 33.1154 55.6546 32.5417 51.517 33.346C51.11 33.426 50.7048 33.5157 50.3014 33.6153C50.2239 33.3497 50.1421 33.0853 50.0561 32.8221C48.6523 28.5923 46.3852 25.8419 44.0683 25.8438C41.8473 25.8438 39.7001 28.4208 38.3295 32.4071C38.1942 32.8006 38.0694 33.1966 37.955 33.5951C37.6857 33.5286 37.4151 33.4672 37.1434 33.4106C32.7789 32.5159 29.2648 33.1062 28.1082 35.1151C26.9995 37.0391 28.158 40.1879 30.9268 43.3644C31.2023 43.678 31.4851 43.9855 31.7754 44.2868C31.4323 44.6373 31.1094 44.9896 30.8069 45.3401C28.1045 48.4723 27.0124 51.5677 28.1192 53.4843C29.2629 55.4655 32.7272 56.1129 36.946 55.2828C37.2879 55.2152 37.6279 55.139 37.9661 55.0541C38.0891 55.4858 38.225 55.9143 38.3738 56.3398C39.7388 60.245 41.8731 62.7372 44.0867 62.7372C46.3741 62.7372 48.6652 60.0568 50.0542 55.9875C50.1649 55.6665 50.2663 55.3326 50.366 54.9895C50.8025 55.0978 51.2422 55.1937 51.6849 55.2773C55.7487 56.0465 58.975 55.4433 60.08 53.5249C61.2218 51.5419 60.0431 48.2178 57.2134 44.984ZM29.4732 35.9009C30.1853 34.665 33.0574 34.1817 36.8261 34.9564C37.0671 35.0056 37.3125 35.061 37.5621 35.1224C37.1937 36.7501 36.9337 38.4004 36.7836 40.0625C35.4246 41.0181 34.1288 42.0607 32.9043 43.1837C32.635 42.9045 32.3724 42.6186 32.1166 42.3259C29.7425 39.6068 28.8055 37.0612 29.4732 35.9009ZM36.6435 46.4672C35.7027 45.7533 34.8265 45.0228 34.0314 44.2886C34.8246 43.5581 35.7008 42.8313 36.6416 42.1193C36.6072 42.8436 36.5906 43.5686 36.5918 44.2941C36.5918 45.0197 36.609 45.7441 36.6435 46.4672ZM36.6435 53.7352C35.0445 54.0913 33.3937 54.15 31.7735 53.9086C31.3294 53.8738 30.897 53.7484 30.5033 53.5399C30.1095 53.3314 29.7627 53.0444 29.4843 52.6966C28.811 51.5345 29.689 49.0479 32.0004 46.3694C32.2906 46.0337 32.5907 45.7065 32.9006 45.388C34.1256 46.5179 35.424 47.5655 36.7873 48.524C36.9388 50.207 37.2014 51.8783 37.5732 53.5267C37.2657 53.6042 36.9552 53.6743 36.6416 53.737L36.6435 53.7352ZM49.7406 38.9059C49.122 38.516 48.4961 38.1391 47.8627 37.7751C47.238 37.416 46.6065 37.0698 45.9683 36.7365C47.0176 36.2933 48.0882 35.9024 49.1761 35.5652C49.4204 36.6685 49.6087 37.7835 49.7406 38.9059ZM39.8218 32.9181C40.995 29.5054 42.7327 27.4209 44.0719 27.4209C45.4979 27.4191 47.3499 29.6678 48.5619 33.3184C48.6406 33.5569 48.7144 33.7967 48.7832 34.0378C47.1923 34.5308 45.6357 35.1286 44.1236 35.8271C42.6165 35.12 41.0635 34.5154 39.475 34.0175C39.582 33.6486 39.6976 33.2821 39.8218 32.9181ZM39.084 35.5449C40.1669 35.8857 41.2321 36.281 42.2752 36.7291C40.9815 37.3957 39.7222 38.1219 38.4973 38.9077C38.6449 37.7308 38.8423 36.6037 39.084 35.5449ZM38.4992 49.675C39.1104 50.0673 39.7308 50.4443 40.3605 50.8058C41.0024 51.1748 41.6523 51.5289 42.3103 51.8684C41.2596 52.332 40.1858 52.7415 39.0932 53.0951C38.8393 51.9661 38.6411 50.8253 38.4992 49.6769V49.675ZM48.5637 55.4784C48.0729 57.0409 47.2988 58.4997 46.28 59.782C46.0285 60.1496 45.7042 60.4617 45.3273 60.699C44.9503 60.9363 44.5288 61.0938 44.0885 61.1618C42.7438 61.1618 41.0301 59.1603 39.8642 55.8196C39.7265 55.4249 39.5998 55.0264 39.4842 54.6243C41.0802 54.1095 42.6395 53.487 44.1513 52.7612C45.6762 53.4653 47.2457 54.0686 48.8496 54.5671C48.7611 54.8733 48.6658 55.1771 48.5637 55.4784ZM49.2315 53.036C48.1293 52.6918 47.0446 52.2942 45.9812 51.8444C46.6071 51.516 47.2374 51.1686 47.872 50.8021C48.5237 50.4258 49.1583 50.0403 49.7757 49.6455C49.6524 50.7843 49.4707 51.9159 49.2315 53.036ZM50.0561 44.2868C50.0561 45.4071 50.021 46.5262 49.9509 47.6441C49.0415 48.2602 48.0823 48.8615 47.0843 49.4371C46.0882 50.0108 45.105 50.5383 44.1384 51.0161C43.1213 50.5291 42.124 50.004 41.1463 49.4408C40.1748 48.8812 39.2254 48.2854 38.2981 47.6533C38.212 46.5342 38.169 45.4139 38.169 44.2923C38.169 43.172 38.2108 42.0523 38.2944 40.9332C40.1488 39.6671 42.0962 38.543 44.1199 37.5703C45.1234 38.0585 46.1091 38.5818 47.0769 39.1401C48.0484 39.6985 49.0015 40.2881 49.9361 40.9092C50.0161 42.0332 50.0561 43.1591 50.0561 44.2868ZM51.8196 34.8919C55.365 34.2038 58.0361 34.6668 58.7057 35.8271C59.4196 37.063 58.3977 39.7895 55.8391 42.6635C55.6977 42.8221 55.5513 42.9814 55.4001 43.1412C54.1539 42.0147 52.8326 40.9744 51.4451 40.0274C51.3054 38.3837 51.0558 36.7512 50.698 35.1409C51.0792 35.0474 51.4531 34.9644 51.8196 34.8919ZM51.5798 42.0584C52.516 42.7418 53.4162 43.4732 54.2767 44.2499C53.4202 45.039 52.5231 45.7828 51.589 46.4782C51.6173 45.7477 51.6314 45.0173 51.6314 44.2868C51.6314 43.544 51.6142 42.8012 51.5798 42.0584ZM58.7168 52.7372C58.0453 53.9012 55.4554 54.3863 51.9782 53.7296C51.5798 53.6546 51.1715 53.5648 50.7533 53.4603C51.1025 51.8291 51.341 50.1762 51.4672 48.5129C52.8522 47.55 54.1694 46.493 55.4093 45.3493C55.627 45.5743 55.8336 45.7982 56.0291 46.0208C57.1378 47.2264 58.0152 48.6258 58.6172 50.1491C58.8098 50.5508 58.9181 50.9877 58.9352 51.4328C58.9524 51.878 58.878 52.3219 58.7168 52.7372Z" fill="#00DCFE" fill-opacity="0.96"/>
<rect x="10.8457" y="80.1953" width="66.5128" height="23.2051" rx="4" fill="#232323"/>
<path d="M22.1855 96.2969V87.3458H25.21C25.9093 87.3458 26.4833 87.4653 26.932 87.7042C27.3807 87.9402 27.7129 88.2651 27.9285 88.6789C28.1441 89.0926 28.2519 89.5632 28.2519 90.0906C28.2519 90.618 28.1441 91.0856 27.9285 91.4936C27.7129 91.9015 27.3822 92.222 26.9364 92.4551C26.4905 92.6853 25.9209 92.8004 25.2274 92.8004H22.7799V91.8214H25.1925C25.6703 91.8214 26.0549 91.7514 26.3463 91.6116C26.6406 91.4717 26.8533 91.2736 26.9844 91.0172C27.1185 90.7578 27.1855 90.449 27.1855 90.0906C27.1855 89.7322 27.1185 89.419 26.9844 89.1509C26.8504 88.8828 26.6362 88.676 26.3419 88.5303C26.0477 88.3817 25.6587 88.3074 25.175 88.3074H23.2694V96.2969H22.1855ZM26.3988 92.2759L28.6016 96.2969H27.3428L25.175 92.2759H26.3988ZM32.6608 96.4367C32.0139 96.4367 31.4559 96.294 30.9868 96.0084C30.5206 95.72 30.1608 95.3179 29.9073 94.8021C29.6567 94.2835 29.5314 93.6803 29.5314 92.9927C29.5314 92.305 29.6567 91.699 29.9073 91.1745C30.1608 90.6471 30.5133 90.2363 30.965 89.942C31.4195 89.6448 31.9498 89.4962 32.5559 89.4962C32.9055 89.4962 33.2508 89.5545 33.5917 89.671C33.9326 89.7876 34.243 89.9769 34.5227 90.2392C34.8024 90.4985 35.0253 90.8423 35.1914 91.2707C35.3575 91.699 35.4405 92.2264 35.4405 92.8528V93.2899H30.2657V92.3983H34.3916C34.3916 92.0195 34.3158 91.6815 34.1643 91.3843C34.0157 91.0871 33.803 90.8525 33.5262 90.6806C33.2523 90.5087 32.9289 90.4227 32.5559 90.4227C32.1451 90.4227 31.7896 90.5247 31.4895 90.7287C31.1923 90.9297 30.9635 91.192 30.8033 91.5154C30.643 91.8388 30.5629 92.1856 30.5629 92.5556V93.15C30.5629 93.657 30.6503 94.0868 30.8251 94.4394C31.0029 94.789 31.2491 95.0556 31.5638 95.2392C31.8784 95.4198 32.2441 95.5102 32.6608 95.5102C32.9318 95.5102 33.1765 95.4723 33.3951 95.3965C33.6165 95.3179 33.8073 95.2013 33.9676 95.0469C34.1279 94.8895 34.2517 94.6943 34.3391 94.4612L35.3356 94.7409C35.2307 95.0789 35.0544 95.3761 34.8068 95.6325C34.5591 95.886 34.2532 96.0842 33.8889 96.2269C33.5247 96.3668 33.1153 96.4367 32.6608 96.4367ZM38.9851 96.4542C38.5597 96.4542 38.1736 96.3741 37.8269 96.2138C37.4801 96.0507 37.2048 95.8161 37.0008 95.5102C36.7969 95.2013 36.6949 94.8283 36.6949 94.3913C36.6949 94.0067 36.7706 93.6949 36.9221 93.456C37.0737 93.2141 37.2762 93.0247 37.5297 92.8878C37.7832 92.7508 38.0629 92.6489 38.3688 92.5818C38.6777 92.5119 38.988 92.4565 39.2998 92.4158C39.7077 92.3633 40.0384 92.324 40.2919 92.2977C40.5483 92.2686 40.7348 92.2205 40.8513 92.1535C40.9708 92.0865 41.0305 91.97 41.0305 91.8039V91.7689C41.0305 91.3377 40.9125 91.0026 40.6765 90.7637C40.4434 90.5247 40.0894 90.4053 39.6145 90.4053C39.122 90.4053 38.736 90.5131 38.4562 90.7287C38.1765 90.9443 37.9798 91.1745 37.8662 91.4193L36.8872 91.0696C37.062 90.6617 37.2951 90.3441 37.5865 90.1168C37.8808 89.8866 38.2013 89.7264 38.548 89.636C38.8977 89.5428 39.2415 89.4962 39.5795 89.4962C39.7951 89.4962 40.0428 89.5224 40.3225 89.5748C40.6051 89.6244 40.8776 89.7278 41.1398 89.8852C41.405 90.0425 41.6249 90.28 41.7998 90.5976C41.9746 90.9152 42.062 91.3406 42.062 91.8738V96.2969H41.0305V95.3878H40.9781C40.9082 95.5335 40.7916 95.6894 40.6284 95.8554C40.4653 96.0215 40.2482 96.1628 39.9772 96.2794C39.7062 96.3959 39.3755 96.4542 38.9851 96.4542ZM39.1424 95.5276C39.5504 95.5276 39.8942 95.4475 40.1739 95.2873C40.4565 95.127 40.6692 94.9201 40.812 94.6666C40.9577 94.4131 41.0305 94.1465 41.0305 93.8668V92.9227C40.9868 92.9752 40.8907 93.0233 40.7421 93.067C40.5964 93.1078 40.4274 93.1442 40.2351 93.1762C40.0457 93.2054 39.8607 93.2316 39.68 93.2549C39.5023 93.2753 39.358 93.2928 39.2473 93.3074C38.9793 93.3423 38.7287 93.3991 38.4956 93.4778C38.2654 93.5536 38.0789 93.6687 37.9361 93.8231C37.7963 93.9746 37.7263 94.1815 37.7263 94.4437C37.7263 94.8021 37.8589 95.0731 38.1241 95.2567C38.3921 95.4373 38.7316 95.5276 39.1424 95.5276ZM46.6719 96.4367C46.0426 96.4367 45.5006 96.2881 45.0461 95.9909C44.5915 95.6937 44.2419 95.2843 43.9971 94.7628C43.7523 94.2412 43.63 93.6454 43.63 92.9752C43.63 92.2934 43.7553 91.6917 44.0058 91.1701C44.2593 90.6457 44.6119 90.2363 45.0635 89.942C45.5181 89.6448 46.0484 89.4962 46.6544 89.4962C47.1265 89.4962 47.5519 89.5836 47.9307 89.7584C48.3095 89.9332 48.6198 90.178 48.8616 90.4927C49.1035 90.8074 49.2535 91.1745 49.3118 91.5941H48.2803C48.2017 91.2881 48.0268 91.0172 47.7558 90.7811C47.4878 90.5422 47.1265 90.4227 46.6719 90.4227C46.2698 90.4227 45.9173 90.5276 45.6142 90.7374C45.3141 90.9443 45.0796 91.2371 44.9106 91.6159C44.7445 91.9918 44.6614 92.4332 44.6614 92.9402C44.6614 93.4589 44.743 93.9105 44.9062 94.2951C45.0723 94.6797 45.3054 94.9784 45.6055 95.1911C45.9085 95.4038 46.264 95.5102 46.6719 95.5102C46.94 95.5102 47.1833 95.4635 47.4018 95.3703C47.6204 95.2771 47.8054 95.143 47.9569 94.9682C48.1084 94.7934 48.2162 94.5836 48.2803 94.3388H49.3118C49.2535 94.7351 49.1093 95.092 48.8791 95.4096C48.6518 95.7243 48.3503 95.9749 47.9744 96.1614C47.6014 96.345 47.1673 96.4367 46.6719 96.4367ZM53.7392 89.5836V90.4577H50.2602V89.5836H53.7392ZM51.2742 87.9752H52.3057V94.3738C52.3057 94.6652 52.3479 94.8837 52.4324 95.0294C52.5198 95.1722 52.6306 95.2683 52.7646 95.3179C52.9015 95.3645 53.0458 95.3878 53.1973 95.3878C53.3109 95.3878 53.4042 95.382 53.477 95.3703C53.5498 95.3557 53.6081 95.3441 53.6518 95.3353L53.8616 96.2619C53.7917 96.2881 53.6941 96.3144 53.5688 96.3406C53.4435 96.3697 53.2847 96.3843 53.0924 96.3843C52.801 96.3843 52.5155 96.3216 52.2357 96.1964C51.9589 96.0711 51.7287 95.8802 51.5452 95.6238C51.3645 95.3674 51.2742 95.044 51.2742 94.6535V87.9752ZM56.0426 96.3668C55.8269 96.3668 55.6419 96.2896 55.4875 96.1352C55.3331 95.9807 55.2558 95.7957 55.2558 95.5801C55.2558 95.3645 55.3331 95.1795 55.4875 95.025C55.6419 94.8706 55.8269 94.7934 56.0426 94.7934C56.2582 94.7934 56.4432 94.8706 56.5976 95.025C56.7521 95.1795 56.8293 95.3645 56.8293 95.5801C56.8293 95.7229 56.7929 95.854 56.72 95.9734C56.6501 96.0929 56.5554 96.1891 56.4359 96.2619C56.3194 96.3318 56.1882 96.3668 56.0426 96.3668ZM58.6802 89.5836H59.7117V96.7864C59.7117 97.2001 59.6403 97.5585 59.4975 97.8616C59.3577 98.1646 59.145 98.3991 58.8594 98.5652C58.5768 98.7313 58.2199 98.8144 57.7886 98.8144C57.7537 98.8144 57.7187 98.8144 57.6837 98.8144C57.6488 98.8144 57.6138 98.8144 57.5788 98.8144V97.8528C57.6138 97.8528 57.6459 97.8528 57.675 97.8528C57.7041 97.8528 57.7362 97.8528 57.7711 97.8528C58.0858 97.8528 58.316 97.7596 58.4617 97.5731C58.6074 97.3895 58.6802 97.1273 58.6802 96.7864V89.5836ZM59.1872 88.4647C58.9862 88.4647 58.8128 88.3962 58.6671 88.2593C58.5243 88.1223 58.453 87.9577 58.453 87.7654C58.453 87.5731 58.5243 87.4085 58.6671 87.2715C58.8128 87.1346 58.9862 87.0661 59.1872 87.0661C59.3883 87.0661 59.5602 87.1346 59.703 87.2715C59.8487 87.4085 59.9215 87.5731 59.9215 87.7654C59.9215 87.9577 59.8487 88.1223 59.703 88.2593C59.5602 88.3962 59.3883 88.4647 59.1872 88.4647ZM66.3562 91.0871L65.4296 91.3493C65.3713 91.1949 65.2853 91.0448 65.1717 90.8991C65.061 90.7505 64.9095 90.6282 64.7172 90.532C64.5249 90.4359 64.2786 90.3878 63.9785 90.3878C63.5677 90.3878 63.2253 90.4825 62.9514 90.6719C62.6805 90.8584 62.545 91.0958 62.545 91.3843C62.545 91.6407 62.6382 91.8432 62.8247 91.9918C63.0112 92.1404 63.3025 92.2642 63.6988 92.3633L64.6953 92.6081C65.2955 92.7538 65.7428 92.9767 66.0371 93.2768C66.3314 93.574 66.4785 93.9571 66.4785 94.4262C66.4785 94.8109 66.3678 95.1547 66.1464 95.4577C65.9278 95.7607 65.6219 95.9997 65.2285 96.1745C64.8352 96.3493 64.3777 96.4367 63.8562 96.4367C63.1714 96.4367 62.6047 96.2881 62.156 95.9909C61.7073 95.6937 61.4232 95.2596 61.3037 94.6885L62.2827 94.4437C62.376 94.805 62.5522 95.076 62.8116 95.2567C63.0738 95.4373 63.4162 95.5276 63.8387 95.5276C64.3194 95.5276 64.7011 95.4257 64.9838 95.2217C65.2693 95.0148 65.4121 94.7672 65.4121 94.4787C65.4121 94.2456 65.3305 94.0504 65.1673 93.893C65.0042 93.7328 64.7536 93.6133 64.4156 93.5346L63.2967 93.2724C62.6819 93.1267 62.2303 92.9009 61.9418 92.595C61.6563 92.2861 61.5135 91.9 61.5135 91.4367C61.5135 91.0579 61.6198 90.7229 61.8326 90.4315C62.0482 90.1401 62.341 89.9114 62.711 89.7453C63.084 89.5792 63.5065 89.4962 63.9785 89.4962C64.6429 89.4962 65.1644 89.6419 65.5432 89.9332C65.9249 90.2246 66.1959 90.6092 66.3562 91.0871Z" fill="#FFA500"/>
</g>
<defs>
<filter id="filter0_d_409_4814" x="0" y="0" width="92.2051" height="124" filterUnits="userSpaceOnUse" color-interpolation-filters="sRGB">
<feFlood flood-opacity="0" result="BackgroundImageFix"/>
<feColorMatrix in="SourceAlpha" type="matrix" values="0 0 0 0 0 0 0 0 0 0 0 0 0 0 0 0 0 0 127 0" result="hardAlpha"/>
<feOffset dx="4" dy="4"/>
<feComposite in2="hardAlpha" operator="out"/>
<feColorMatrix type="matrix" values="0 0 0 0 0.462745 0 0 0 0 0.482353 0 0 0 0 0.486275 0 0 0 1 0"/>
<feBlend mode="normal" in2="BackgroundImageFix" result="effect1_dropShadow_409_4814"/>
<feBlend mode="normal" in="SourceGraphic" in2="effect1_dropShadow_409_4814" result="shape"/>
</filter>
</defs>
</svg>
