<svg width="93" height="124" viewBox="0 0 93 124" fill="none" xmlns="http://www.w3.org/2000/svg">
<g filter="url(#filter0_d_409_4827)">
<rect width="88.2051" height="120" rx="16.4103" fill="#232323" shape-rendering="crispEdges"/>
<rect x="1.02564" y="1.02564" width="86.1538" height="117.949" rx="15.3846" stroke="#B9BABA" stroke-width="2.05128" shape-rendering="crispEdges"/>
<rect x="16.923" y="17.1144" width="54.359" height="54.359" rx="27.1795" fill="#808080"/>
<rect x="16.923" y="17.1144" width="54.359" height="54.359" rx="27.1795" stroke="#24C2AF" stroke-width="1.02564"/>
<g clip-path="url(#clip0_409_4827)">
<path d="M52.6025 28.2891H35.6005C31.4579 28.2891 28.0996 31.6473 28.0996 35.79V52.792C28.0996 56.9346 31.4579 60.2929 35.6005 60.2929H52.6025C56.7452 60.2929 60.1034 56.9346 60.1034 52.792V35.79C60.1034 31.6473 56.7452 28.2891 52.6025 28.2891Z" fill="#CD6799"/>
<mask id="mask0_409_4827" style="mask-type:luminance" maskUnits="userSpaceOnUse" x="31" y="34" width="26" height="20">
<path d="M31.6016 34.9219H56.6045V53.6627H31.6016V34.9219Z" fill="white"/>
</mask>
<g mask="url(#mask0_409_4827)">
<path d="M53.1167 45.6948C52.2448 45.6993 51.4873 45.9093 50.8528 46.2196C50.62 45.7586 50.3872 45.3478 50.3461 45.0466C50.3005 44.6951 50.2457 44.4806 50.3005 44.0607C50.3552 43.6408 50.6018 43.0429 50.5971 42.9973C50.5926 42.9516 50.5424 42.7372 50.0403 42.7325C49.5383 42.728 49.1047 42.8284 49.0545 42.9608C49.0042 43.0931 48.9084 43.3944 48.8446 43.7048C48.7578 44.1612 47.8403 45.7906 47.3155 46.6441C47.1466 46.311 47.0006 46.0188 46.9686 45.786C46.923 45.4346 46.8682 45.2201 46.923 44.8002C46.9777 44.3802 47.2242 43.7823 47.2196 43.7367C47.2151 43.691 47.1649 43.4765 46.6628 43.472C46.1607 43.4674 45.7271 43.5678 45.6769 43.7001C45.6267 43.8325 45.5719 44.1429 45.4669 44.4441C45.362 44.7454 44.1434 47.4657 43.8238 48.1686C43.6947 48.453 43.5593 48.7345 43.4177 49.0129C43.4177 49.0129 43.413 49.0267 43.3994 49.0494C43.3549 49.1367 43.3092 49.2234 43.2624 49.3096V49.3142C43.194 49.4375 43.1209 49.5515 43.0844 49.5515C43.057 49.5515 43.0069 49.2229 43.0935 48.7756C43.2762 47.8308 43.7097 46.3611 43.7052 46.311C43.7052 46.2836 43.7873 46.0279 43.4222 45.8955C43.0661 45.7631 42.9384 45.9823 42.9064 45.9823C42.8745 45.9823 42.8516 46.0599 42.8516 46.0599C42.8516 46.0599 43.2488 44.4076 42.094 44.4076C41.3728 44.4076 40.3778 45.1972 39.885 45.9093C39.3246 46.2142 38.7646 46.52 38.2052 46.8266C37.936 46.9773 37.6576 47.1279 37.3973 47.2694C37.3791 47.2512 37.3608 47.2283 37.3426 47.2101C35.9459 45.7175 33.3626 44.6633 33.4721 42.6595C33.5132 41.9292 33.7643 40.0122 38.4335 37.6844C42.2765 35.7903 45.3346 36.3151 45.8641 37.479C46.6217 39.1405 44.2255 42.2258 40.2547 42.6731C38.7392 42.842 37.9451 42.2578 37.7444 42.0388C37.5343 41.8105 37.5023 41.7969 37.4247 41.8426C37.2969 41.9109 37.3791 42.1163 37.4247 42.235C37.5435 42.5454 38.0318 43.0931 38.8579 43.3624C39.5882 43.5998 41.3637 43.7322 43.5134 42.9014C45.9188 41.9703 47.7993 39.3823 47.247 37.2144C46.6948 35.0144 43.0434 34.2887 39.5882 35.5164C37.5342 36.2468 35.307 37.3969 33.7049 38.8939C31.8015 40.6742 31.5004 42.2213 31.6236 42.8694C32.0663 45.1698 35.2384 46.6669 36.5073 47.776C36.4435 47.8125 36.3841 47.8445 36.334 47.8719C35.6995 48.1868 33.2805 49.4511 32.6779 50.7885C31.9933 52.3038 32.7875 53.39 33.3123 53.5361C34.9418 53.988 36.6169 53.1755 37.5161 51.8336C38.4152 50.4917 38.3057 48.7482 37.8903 47.9495C37.8858 47.9394 37.8796 47.9301 37.872 47.9221C38.0364 47.8263 38.2052 47.7259 38.3696 47.63C38.6716 47.4515 38.9775 47.2795 39.2869 47.1142C39.1318 47.5387 39.0176 48.0453 38.9629 48.7756C38.8945 49.6337 39.2459 50.7474 39.7069 51.1855C39.9123 51.3772 40.1542 51.3818 40.3094 51.3818C40.848 51.3818 41.0899 50.9345 41.3592 50.4051C41.6877 49.7569 41.9845 49.0038 41.9845 49.0038C41.9845 49.0038 41.6147 51.0395 42.6188 51.0395C42.984 51.0395 43.3537 50.5648 43.5181 50.3229V50.3274C43.5181 50.3274 43.5272 50.3138 43.5454 50.2818C43.5819 50.2224 43.6047 50.1859 43.6047 50.1859V50.1768C43.7508 49.9213 44.0794 49.3416 44.5678 48.3785C45.1976 47.1371 45.8047 45.5852 45.8047 45.5852C45.8047 45.5852 45.8595 45.964 46.0466 46.5939C46.1561 46.9637 46.3844 47.3698 46.5669 47.7624C46.4209 47.9678 46.3296 48.0818 46.3296 48.0818L46.3341 48.0864C46.2155 48.2416 46.0877 48.4105 45.9462 48.5747C45.4487 49.1682 44.8553 49.8483 44.7732 50.0445C44.6773 50.2773 44.7002 50.4461 44.8827 50.5831C45.0151 50.6835 45.2524 50.6971 45.4943 50.6835C45.9416 50.6515 46.2566 50.542 46.4118 50.4735C46.6537 50.3868 46.9367 50.2544 47.2014 50.0582C47.6898 49.6976 47.9865 49.1818 47.9591 48.5017C47.9453 48.1274 47.8221 47.7533 47.6715 47.4017C47.7172 47.3378 47.7582 47.2739 47.8038 47.2101C48.5753 46.0827 49.1731 44.8458 49.1731 44.8458C49.1731 44.8458 49.2279 45.2246 49.415 45.8545C49.5063 46.1739 49.6934 46.5209 49.8578 46.8586C49.1321 47.4475 48.6848 48.132 48.525 48.5794C48.2375 49.4101 48.4611 49.7842 48.8856 49.871C49.0773 49.9121 49.3511 49.8209 49.552 49.7341C49.8076 49.652 50.1088 49.5105 50.3964 49.3004C50.8847 48.9399 51.3549 48.4378 51.3275 47.7578C51.3137 47.4475 51.2316 47.1416 51.1175 46.8449C51.7337 46.5894 52.5279 46.4478 53.5411 46.5665C55.7138 46.8221 56.1428 48.1777 56.0605 48.7482C55.9784 49.3187 55.522 49.6291 55.3713 49.725C55.2208 49.8209 55.1706 49.8528 55.1843 49.9213C55.2026 50.0216 55.2756 50.017 55.4033 49.9988C55.5814 49.9669 56.5444 49.5378 56.5855 48.4881C56.654 47.1462 55.376 45.681 53.1167 45.6948ZM36.3567 51.3453C35.6356 52.1303 34.6315 52.4271 34.1978 52.176C33.7323 51.9066 33.9148 50.7474 34.8004 49.9166C35.3388 49.4101 36.0327 48.9399 36.4936 48.6524C36.5986 48.5885 36.7538 48.4972 36.9409 48.3831C36.9729 48.3648 36.9912 48.3557 36.9912 48.3557L37.1007 48.2872C37.4247 49.474 37.1143 50.5192 36.3567 51.3453ZM41.6056 47.776C41.3545 48.3877 40.8297 49.9531 40.5102 49.8665C40.2364 49.7934 40.0675 48.6067 40.4554 47.4337C40.6517 46.8449 41.067 46.1421 41.3089 45.8682C41.7015 45.43 42.135 45.284 42.24 45.462C42.3724 45.6948 41.7608 47.3926 41.6056 47.776ZM45.9371 49.8483C45.8321 49.903 45.7317 49.9395 45.6861 49.9121C45.6541 49.8939 45.7317 49.8209 45.7317 49.8209C45.7317 49.8209 46.2749 49.2366 46.4894 48.9719C46.6125 48.8166 46.7587 48.6341 46.9138 48.4287V48.4881C46.9138 49.1864 46.2384 49.6565 45.9371 49.8483ZM49.2781 49.0859C49.2005 49.0312 49.2142 48.8486 49.4744 48.2781C49.5748 48.0544 49.8122 47.6802 50.2184 47.3196C50.264 47.4657 50.296 47.6071 50.2914 47.7395C50.2869 48.6205 49.6569 48.949 49.2781 49.0859Z" fill="white"/>
</g>
</g>
<rect x="17.8457" y="80.1953" width="52.5128" height="23.2051" rx="4" fill="#232323"/>
<path d="M34.0806 89.5836C34.0281 89.1407 33.8154 88.7969 33.4425 88.5521C33.0695 88.3074 32.6121 88.185 32.0701 88.185C31.6738 88.185 31.3271 88.2491 31.0299 88.3773C30.7356 88.5055 30.5054 88.6818 30.3393 88.9061C30.1762 89.1305 30.0946 89.3855 30.0946 89.671C30.0946 89.9099 30.1514 90.1153 30.265 90.2873C30.3816 90.4563 30.5302 90.5976 30.7108 90.7112C30.8915 90.8219 31.0809 90.9137 31.279 90.9866C31.4771 91.0565 31.6593 91.1133 31.8253 91.157L32.7344 91.4018C32.9675 91.463 33.2269 91.5475 33.5124 91.6553C33.8009 91.7631 34.0762 91.9102 34.3385 92.0967C34.6036 92.2803 34.8221 92.5163 34.994 92.8047C35.166 93.0932 35.2519 93.4472 35.2519 93.8668C35.2519 94.3505 35.1252 94.7876 34.8717 95.178C34.6211 95.5684 34.254 95.8788 33.7703 96.1089C33.2895 96.3391 32.7053 96.4542 32.0176 96.4542C31.3766 96.4542 30.8216 96.3508 30.3524 96.1439C29.8862 95.937 29.5191 95.6486 29.251 95.2785C28.9859 94.9085 28.8358 94.4787 28.8009 93.9892H29.9197C29.9489 94.3272 30.0625 94.6069 30.2607 94.8283C30.4617 95.0469 30.7152 95.21 31.0211 95.3179C31.33 95.4227 31.6622 95.4752 32.0176 95.4752C32.4314 95.4752 32.8029 95.4082 33.1322 95.2741C33.4614 95.1372 33.7222 94.9478 33.9145 94.706C34.1068 94.4612 34.203 94.1757 34.203 93.8493C34.203 93.5521 34.1199 93.3103 33.9538 93.1238C33.7878 92.9373 33.5692 92.7858 33.2982 92.6693C33.0273 92.5527 32.7344 92.4507 32.4197 92.3633L31.3183 92.0486C30.619 91.8476 30.0654 91.5606 29.6575 91.1876C29.2496 90.8146 29.0456 90.3266 29.0456 89.7234C29.0456 89.2223 29.1811 88.7852 29.4521 88.4123C29.726 88.0364 30.0931 87.745 30.5535 87.5381C31.0168 87.3283 31.534 87.2234 32.1051 87.2234C32.682 87.2234 33.1948 87.3269 33.6435 87.5338C34.0922 87.7377 34.4477 88.0174 34.71 88.3729C34.9751 88.7284 35.115 89.132 35.1295 89.5836H34.0806ZM37.4012 96.2969H36.2648L39.5515 87.3458H40.6704L43.9571 96.2969H42.8207L40.1459 88.7619H40.076L37.4012 96.2969ZM37.8207 92.8004H42.4012V93.7619H37.8207V92.8004ZM50.2464 89.5836C50.194 89.1407 49.9813 88.7969 49.6083 88.5521C49.2354 88.3074 48.7779 88.185 48.236 88.185C47.8397 88.185 47.493 88.2491 47.1957 88.3773C46.9015 88.5055 46.6713 88.6818 46.5052 88.9061C46.342 89.1305 46.2604 89.3855 46.2604 89.671C46.2604 89.9099 46.3173 90.1153 46.4309 90.2873C46.5474 90.4563 46.696 90.5976 46.8767 90.7112C47.0573 90.8219 47.2467 90.9137 47.4449 90.9866C47.643 91.0565 47.8251 91.1133 47.9912 91.157L48.9003 91.4018C49.1334 91.463 49.3927 91.5475 49.6783 91.6553C49.9667 91.7631 50.2421 91.9102 50.5043 92.0967C50.7695 92.2803 50.988 92.5163 51.1599 92.8047C51.3318 93.0932 51.4178 93.4472 51.4178 93.8668C51.4178 94.3505 51.291 94.7876 51.0375 95.178C50.7869 95.5684 50.4198 95.8788 49.9361 96.1089C49.4554 96.3391 48.8712 96.4542 48.1835 96.4542C47.5425 96.4542 46.9874 96.3508 46.5183 96.1439C46.0521 95.937 45.685 95.6486 45.4169 95.2785C45.1518 94.9085 45.0017 94.4787 44.9667 93.9892H46.0856C46.1147 94.3272 46.2284 94.6069 46.4265 94.8283C46.6276 95.0469 46.8811 95.21 47.187 95.3179C47.4959 95.4227 47.828 95.4752 48.1835 95.4752C48.5973 95.4752 48.9688 95.4082 49.298 95.2741C49.6273 95.1372 49.8881 94.9478 50.0804 94.706C50.2727 94.4612 50.3688 94.1757 50.3688 93.8493C50.3688 93.5521 50.2858 93.3103 50.1197 93.1238C49.9536 92.9373 49.7351 92.7858 49.4641 92.6693C49.1931 92.5527 48.9003 92.4507 48.5856 92.3633L47.4842 92.0486C46.7849 91.8476 46.2313 91.5606 45.8234 91.1876C45.4154 90.8146 45.2115 90.3266 45.2115 89.7234C45.2115 89.2223 45.347 88.7852 45.618 88.4123C45.8918 88.0364 46.259 87.745 46.7194 87.5381C47.1826 87.3283 47.6998 87.2234 48.2709 87.2234C48.8478 87.2234 49.3607 87.3269 49.8094 87.5338C50.2581 87.7377 50.6136 88.0174 50.8758 88.3729C51.141 88.7284 51.2808 89.132 51.2954 89.5836H50.2464ZM58.095 89.5836C58.0426 89.1407 57.8299 88.7969 57.4569 88.5521C57.0839 88.3074 56.6265 88.185 56.0845 88.185C55.6882 88.185 55.3415 88.2491 55.0443 88.3773C54.75 88.5055 54.5198 88.6818 54.3537 88.9061C54.1906 89.1305 54.109 89.3855 54.109 89.671C54.109 89.9099 54.1658 90.1153 54.2794 90.2873C54.396 90.4563 54.5446 90.5976 54.7253 90.7112C54.9059 90.8219 55.0953 90.9137 55.2934 90.9866C55.4916 91.0565 55.6737 91.1133 55.8398 91.157L56.7489 91.4018C56.982 91.463 57.2413 91.5475 57.5268 91.6553C57.8153 91.7631 58.0906 91.9102 58.3529 92.0967C58.618 92.2803 58.8366 92.5163 59.0085 92.8047C59.1804 93.0932 59.2663 93.4472 59.2663 93.8668C59.2663 94.3505 59.1396 94.7876 58.8861 95.178C58.6355 95.5684 58.2684 95.8788 57.7847 96.1089C57.3039 96.3391 56.7197 96.4542 56.0321 96.4542C55.391 96.4542 54.836 96.3508 54.3669 96.1439C53.9007 95.937 53.5335 95.6486 53.2655 95.2785C53.0003 94.9085 52.8503 94.4787 52.8153 93.9892H53.9342C53.9633 94.3272 54.0769 94.6069 54.2751 94.8283C54.4761 95.0469 54.7296 95.21 55.0356 95.3179C55.3444 95.4227 55.6766 95.4752 56.0321 95.4752C56.4458 95.4752 56.8173 95.4082 57.1466 95.2741C57.4758 95.1372 57.7366 94.9478 57.9289 94.706C58.1212 94.4612 58.2174 94.1757 58.2174 93.8493C58.2174 93.5521 58.1343 93.3103 57.9683 93.1238C57.8022 92.9373 57.5836 92.7858 57.3127 92.6693C57.0417 92.5527 56.7489 92.4507 56.4342 92.3633L55.3328 92.0486C54.6335 91.8476 54.0799 91.5606 53.6719 91.1876C53.264 90.8146 53.06 90.3266 53.06 89.7234C53.06 89.2223 53.1955 88.7852 53.4665 88.4123C53.7404 88.0364 54.1075 87.745 54.5679 87.5381C55.0312 87.3283 55.5484 87.2234 56.1195 87.2234C56.6964 87.2234 57.2092 87.3269 57.6579 87.5338C58.1067 87.7377 58.4621 88.0174 58.7244 88.3729C58.9895 88.7284 59.1294 89.132 59.144 89.5836H58.095Z" fill="#FFA500"/>
</g>
<defs>
<filter id="filter0_d_409_4827" x="0" y="0" width="92.2051" height="124" filterUnits="userSpaceOnUse" color-interpolation-filters="sRGB">
<feFlood flood-opacity="0" result="BackgroundImageFix"/>
<feColorMatrix in="SourceAlpha" type="matrix" values="0 0 0 0 0 0 0 0 0 0 0 0 0 0 0 0 0 0 127 0" result="hardAlpha"/>
<feOffset dx="4" dy="4"/>
<feComposite in2="hardAlpha" operator="out"/>
<feColorMatrix type="matrix" values="0 0 0 0 0.462745 0 0 0 0 0.482353 0 0 0 0 0.486275 0 0 0 1 0"/>
<feBlend mode="normal" in2="BackgroundImageFix" result="effect1_dropShadow_409_4827"/>
<feBlend mode="normal" in="SourceGraphic" in2="effect1_dropShadow_409_4827" result="shape"/>
</filter>
<clipPath id="clip0_409_4827">
<rect width="32.0038" height="32.0038" fill="white" transform="translate(28.0996 28.2891)"/>
</clipPath>
</defs>
</svg>
